<svg width="1203" height="432" viewBox="0 0 1203 432" fill="none" xmlns="http://www.w3.org/2000/svg">
<path d="M1135.63 0C1118.16 0 1102.24 21.3059 1090.28 56.2711C1074.53 21.3059 1053.61 0 1030.62 0C1007.62 0 986.99 21.0227 971.29 55.5522C948.591 21.0227 918.527 0 885.547 0C843.162 0 805.613 34.7256 782.306 88.2082C745.195 34.7256 685.359 0 617.893 0C545.079 0 481.185 40.4115 445.119 101.214C402.491 40.4115 327.004 0 240.969 0C107.883 0 0 96.7045 0 216C0 335.296 107.883 432 240.969 432C327.004 432 402.491 391.589 445.119 330.786C481.21 391.589 545.079 432 617.893 432C685.384 432 745.195 397.274 782.306 343.792C805.613 397.274 843.186 432 885.547 432C918.527 432 948.591 410.977 971.29 376.448C986.99 410.977 1007.79 432 1030.62 432C1053.44 432 1074.53 410.694 1090.28 375.729C1102.26 410.694 1118.16 432 1135.63 432C1172.84 432 1203 335.296 1203 216C1203 96.7045 1172.84 0 1135.63 0Z" fill="#CBFF00"/>
</svg>
