<svg width="1065" height="516" viewBox="0 0 1065 516" fill="none" xmlns="http://www.w3.org/2000/svg">
<path d="M698.919 0C785.895 0.000118557 862.217 48.2696 905.299 120.895C941.711 68.962 998.193 29.4849 1065 11.2041V504.795C998.193 486.514 941.711 447.038 905.299 395.105C862.188 467.73 785.895 516 698.919 516C618.3 516 546.855 474.523 502.524 410.641C474.684 474.522 429.802 516 379.201 516C339.806 516 303.895 490.89 276.78 449.646C258.026 490.89 233.176 516 205.916 516C178.656 516 153.458 490.551 134.646 448.787C120.333 490.551 101.347 516 80.4736 516C36.0273 516 0 400.492 0 258C1.48983e-05 115.508 36.0273 0 80.4736 0C101.347 1.59848e-05 120.362 25.4489 134.646 67.2129C153.458 25.4489 178.453 3.11455e-05 205.916 0C233.379 0 258.026 25.1109 276.78 66.3545C303.895 25.111 339.806 0.000121732 379.201 0C429.831 0 474.684 41.4776 502.524 105.359C546.855 41.4774 618.329 0 698.919 0Z" fill="#D3D800"/>
</svg>
