<svg width="1920" height="402" viewBox="0 0 1920 402" fill="none" xmlns="http://www.w3.org/2000/svg">
<path fill-rule="evenodd" clip-rule="evenodd" d="M5.72205e-06 65L0 57L57 0L121 64H123.5L187.5 0L251.5 64H254L318 0L382 64H384.5L448.5 0L512.5 64H515L579 0L643 64H645.5L709.5 0L773.5 64H776L840 0L904 64H906.5L970.5 0L1034.5 64H1037L1101 0L1165 64H1167.5L1231.5 0L1295.5 64H1298L1362 0L1426 64H1428.5L1492.5 0L1556.5 64H1559L1623 0L1687 64H1689.5L1753.5 0L1817.5 64H1820L1884 0L1920 36V65V337V366L1884 402L1819 337H1818.5L1753.5 402L1688.5 337H1688L1623 402L1558 337H1557.5L1492.5 402L1427.5 337H1427L1362 402L1297 337H1296.5L1231.5 402L1166.5 337H1166L1101 402L1036 337H1035.5L970.5 402L905.5 337H905L840 402L775 337H774.5L709.5 402L644.5 337H644L579 402L514 337H513.5L448.5 402L383.5 337H383L318 402L253 337H252.5L187.5 402L122.5 337H122L57 402L0 345L5.72205e-06 337V65Z" fill="#CBFF00"/>
</svg>
