<svg width="1920" height="736" viewBox="0 0 1920 736" fill="none" xmlns="http://www.w3.org/2000/svg">
<path fill-rule="evenodd" clip-rule="evenodd" d="M1920 30.478V547.525C1885.52 544.704 1845.9 552.63 1824.55 569.758L1791.89 595.936C1759.77 621.742 1686.09 626.657 1651.03 605.395L1616.57 584.504C1581.27 563.072 1507.03 568.25 1475.18 594.373L1446.84 617.637C1415.44 643.393 1342.44 648.86 1306.53 628.142L1269.03 606.487C1233.13 585.77 1160.13 591.237 1128.73 616.992L1096.95 643.073C1065.25 669.074 991.344 674.341 955.89 653.107L920.182 631.702C884.811 610.499 810.982 615.687 779.193 641.619L748.166 666.9C716.224 692.954 642.066 698.052 606.841 676.615L573.048 656.051C537.905 634.646 463.825 639.701 431.797 665.687L400.994 690.691C368.891 716.756 294.562 721.716 259.49 700.156L226.774 680.005C191.868 658.508 117.855 663.372 85.5787 689.262L52.9213 715.478C40.1305 725.726 20.828 732.673 0 736V126.743C4.58636 128.415 8.82843 130.385 12.626 132.66L48.5824 154.159C84.1165 175.388 158.098 170.078 189.716 144.008L219.349 119.571C251.042 93.4213 325.433 88.1953 360.817 109.584L394.77 130.137C430.071 151.494 504.066 146.37 536.01 120.353L566.653 95.3597C598.596 69.3051 672.753 64.2073 707.979 85.6446L742.192 106.441C777.249 127.778 851.013 122.819 883.211 96.9713L915.636 70.8836C947.832 44.9984 1021.84 40.0978 1056.74 61.52L1091.81 83.0056C1126.46 104.221 1199.52 99.6471 1232.23 74.2128L1266.4 47.6314C1299.11 22.197 1372.17 17.623 1406.82 38.8386L1438.09 58.0045C1473.16 79.4901 1547.48 74.4557 1579.51 48.4328L1610.77 23.0234C1642.56 -2.83412 1716.23 -8.01045 1751.6 13.1181L1787.55 34.5801C1820.14 54.0505 1885.07 51.1968 1920 30.478Z" fill="#CBFF00"/>
</svg>
