<svg width="1918" height="512" viewBox="0 0 1918 512" fill="none" xmlns="http://www.w3.org/2000/svg">
<path fill-rule="evenodd" clip-rule="evenodd" d="M-2 501.575V133.44C30.0524 123.331 78.2387 122.156 103.266 132.681L132.536 144.986C162.968 157.772 227.676 153.303 255.917 136.463L283.075 120.282C311.384 103.413 376.164 98.9628 406.529 111.801L436.021 124.254C466.241 137.032 530.745 132.67 559.204 115.932L587.935 99.0344C616.463 82.2677 681.041 77.9483 711.193 90.7773L741.419 103.648C771.282 116.357 835.099 112.253 864.069 95.7605L894.327 78.524C923.297 62.0311 987.114 57.9277 1016.98 70.6363L1043.93 82.1178C1074.23 95.0069 1139.08 90.5985 1167.46 73.7251L1195.17 57.2723C1223.34 40.5298 1287.7 36.0153 1318.19 48.6806L1349.19 61.5215C1379.83 74.2238 1444.46 69.6434 1472.49 52.7709L1498.75 36.9549C1526.92 20.026 1591.83 15.473 1622.34 28.3012L1651.61 40.6061C1682.04 53.3925 1746.75 48.9238 1774.99 32.0834L1802.14 15.902C1828.27 0.333007 1885.47 -4.65735 1918 4.75939V382.609C1887.22 389.035 1848.71 388.577 1827.31 379.527L1798.18 367.212C1767.82 354.398 1703.17 358.815 1674.79 375.642L1647.49 391.833C1619.04 408.688 1554.05 413.083 1523.89 400.161L1495.69 388.086C1465.6 375.206 1400.96 379.507 1372.36 396.278L1343.42 413.237C1314.96 429.929 1250.59 434.28 1220.38 421.549L1190.67 409.04C1160.24 396.23 1095.32 400.737 1067.15 417.619L1042.03 432.678C1014.2 449.35 950.424 454.012 919.456 441.637L887.11 428.701C856.143 416.326 792.364 420.988 764.535 437.66L736.368 454.542C708.338 471.368 643.706 475.925 613.139 463.218L582.352 450.409C551.786 437.725 487.362 442.221 459.188 459.01L431.691 475.379C403.382 492.247 338.601 496.698 308.236 483.86L279.106 471.545C248.743 458.731 184.102 463.148 155.719 479.975L128.421 496.166C99.9695 513.021 34.974 517.416 4.81474 504.494L-2 501.575Z" fill="#D3D800"/>
</svg>
