<svg width="1920" height="512" viewBox="0 0 1920 512" fill="none" xmlns="http://www.w3.org/2000/svg">
<path fill-rule="evenodd" clip-rule="evenodd" d="M0 501.575V133.44C32.0524 123.331 80.2387 122.156 105.266 132.681L134.536 144.986C164.968 157.772 229.676 153.303 257.917 136.463L285.075 120.282C313.384 103.413 378.164 98.9628 408.529 111.801L438.021 124.254C468.241 137.032 532.745 132.67 561.204 115.932L589.935 99.0344C618.463 82.2677 683.041 77.9483 713.193 90.7773L743.419 103.648C773.282 116.357 837.099 112.253 866.069 95.7605L896.327 78.524C925.297 62.0311 989.114 57.9277 1018.98 70.6363L1045.93 82.1178C1076.23 95.0069 1141.08 90.5985 1169.46 73.7251L1197.17 57.2723C1225.34 40.5298 1289.7 36.0153 1320.19 48.6806L1351.19 61.5215C1381.83 74.2238 1446.46 69.6434 1474.49 52.7709L1500.75 36.9549C1528.92 20.026 1593.83 15.473 1624.34 28.3012L1653.61 40.6061C1684.04 53.3925 1748.75 48.9238 1776.99 32.0834L1804.14 15.902C1830.27 0.333007 1887.47 -4.65735 1920 4.75939V382.609C1889.22 389.035 1850.71 388.577 1829.31 379.527L1800.18 367.212C1769.82 354.398 1705.17 358.815 1676.79 375.642L1649.49 391.833C1621.04 408.688 1556.05 413.083 1525.89 400.161L1497.69 388.086C1467.6 375.206 1402.96 379.507 1374.36 396.278L1345.42 413.237C1316.96 429.929 1252.59 434.28 1222.38 421.549L1192.67 409.04C1162.24 396.23 1097.32 400.737 1069.15 417.619L1044.03 432.678C1016.2 449.35 952.424 454.012 921.456 441.637L889.11 428.701C858.143 416.326 794.364 420.988 766.535 437.66L738.368 454.542C710.338 471.368 645.706 475.925 615.139 463.218L584.352 450.409C553.786 437.725 489.362 442.221 461.188 459.01L433.691 475.379C405.382 492.247 340.601 496.698 310.236 483.86L281.106 471.545C250.743 458.731 186.102 463.148 157.719 479.975L130.421 496.166C101.97 513.021 36.974 517.416 6.81474 504.494L0 501.575Z" fill="#CBFF00"/>
</svg>
