<svg width="122" height="114" viewBox="0 0 122 114" fill="none" xmlns="http://www.w3.org/2000/svg">
<path d="M35.7243 29.4103C35.8866 30.312 35.3534 31.2067 34.674 31.8215C34.5866 31.8999 34.4974 31.9748 34.394 32.0318C33.8965 32.3009 33.2599 32.0068 32.8996 31.5702C32.3254 30.8716 32.2452 29.813 32.6928 29.0307C31.7601 29.143 30.856 29.4281 30.0232 29.879C30.4619 31.7645 32.1007 33.0708 34.0391 33.1617C35.0413 33.2098 35.9936 32.8908 36.9352 32.5896C37.3917 32.4435 37.8482 32.2955 38.3154 32.194C38.7755 32.0924 39.0804 32.1405 38.8647 31.5845C38.3814 30.337 37.0065 29.6099 35.678 29.2534C35.6994 29.3033 35.7136 29.3586 35.7226 29.4121L35.7243 29.4103Z" fill="#CBFF00"/>
<path d="M38.0901 44.2003C38.1257 44.5549 38.5626 44.7153 38.8176 44.9648C38.9799 45.1234 39.1226 45.3016 39.251 45.487C40.6401 45.102 42.2433 45.6028 42.7925 47.041C43.151 47.9819 42.9245 49.3132 42.1274 49.9458C43.0458 50.6177 43.7751 51.4838 44.2887 52.4961C45.1161 51.3983 46.3697 50.7193 47.5075 49.9441C46.6961 48.9122 46.3359 47.2637 47.256 46.2123C47.9533 45.4139 49.7811 45.2713 50.58 46.0768C50.9509 45.904 51.3236 45.7311 51.6946 45.5582C52.0744 45.3818 52.7092 45.266 52.6415 44.783C52.5256 43.9686 51.6946 42.9777 51.0865 42.4823C50.2911 41.8354 49.2515 41.5092 48.2814 41.2188C47.2828 40.9194 46.2556 40.7073 45.2142 40.6467C43.3114 40.5362 41.3516 40.9318 39.777 42.0474C39.4061 42.3112 39.0548 42.6177 38.7588 42.9652C38.5377 43.2254 38.0526 43.8296 38.0918 44.2003H38.0901Z" fill="#CBFF00"/>
<path d="M17.1049 62.7814C16.1295 63.7045 15.2699 64.7239 14.496 65.811C15.9904 64.1037 17.7522 62.6317 19.7103 61.4858C18.758 61.4412 17.8271 62.0971 17.1049 62.7814Z" fill="#CBFF00"/>
<path d="M4.44316 70.4191C8.67484 65.52 14.5757 62.0876 20.9277 60.8312C20.5139 61.0362 20.1091 61.2572 19.7097 61.4906C19.8559 61.4978 20.0039 61.5209 20.1519 61.5637C20.735 61.733 21.1898 62.1785 21.6178 62.6062C24.1161 65.1012 26.6127 67.5962 29.111 70.0894C30.0009 70.9787 30.9139 71.9018 31.4043 73.0584C31.5951 73.0139 31.8109 73.0887 31.8733 73.3329C32.6419 76.3928 33.5371 79.4189 34.5696 82.4004C35.5504 85.2304 36.6257 88.039 38.0309 90.689C40.1138 94.6115 43.4859 99.3573 48.4149 99.491C51.0202 99.5623 53.4026 98.2417 55.5818 96.9639C58.0088 95.54 60.4251 94.1 62.8468 92.6672C65.2578 91.2415 67.7329 89.8871 70.0672 88.3384C72.1465 86.959 73.7942 85.1823 75.4116 83.3039C76.9363 81.5307 78.4735 79.745 80.4119 78.4048C82.3842 77.0415 85.027 75.9419 85.6048 73.3596C85.669 73.0727 85.9472 73.0157 86.1558 73.1137C85.9882 72.3438 86.0738 71.5401 86.6319 70.927C88.7772 73.2349 90.9171 75.5481 93.0517 77.8666C91.5163 75.5445 90.029 73.2491 88.4063 70.8165C87.7304 69.7365 88.5418 68.6548 89.1214 67.737C89.5779 66.862 90.0344 65.9851 90.4891 65.1101C91.0669 65.7784 91.6287 66.4628 92.1725 67.1596C94.086 69.61 95.7872 72.2262 97.2477 74.9707C96.6503 71.2211 94.4872 67.8439 91.6483 65.0068C91.3772 64.8713 91.9193 64.3313 91.9425 63.8912C92.062 63.4171 92.0762 62.9181 91.9817 62.4387C92.7985 62.6383 93.592 62.9288 94.3463 63.3013C97.0052 64.6147 99.1683 66.9297 100.228 69.7062C99.6248 66.4931 97.1906 64.1977 94.8938 62.1714C93.9469 60.5497 94.7583 59.0651 95.7052 57.5788C100.165 50.2846 99.7603 40.8286 95.4341 33.8052C95.2986 32.5898 95.8389 31.3744 95.2986 30.2926C94.7583 29.0772 93.8113 28.1309 93.6758 26.7801C93.5403 23.6738 93.271 20.2967 94.7565 17.3241C96.3793 14.2178 98.4068 11.6516 101.244 9.48984C104.352 7.32812 107.056 5.30183 109.984 3.4003L109.652 3.04922C101.636 2.51815 95.2415 9.82309 87.388 11.509C79.9037 13.1147 72.3551 9.42747 64.7121 8.98372C59.3231 8.67007 53.8948 9.97993 48.5432 9.26708C46.5674 9.00332 44.6022 8.46511 42.6139 8.61303C40.5293 8.76807 38.557 9.67341 36.4741 9.8338C32.9754 10.1047 29.6621 8.26195 26.8784 6.12518C24.0947 3.99019 21.5393 1.47026 18.3526 0C18.7414 3.8797 19.1283 7.76117 19.5171 11.6409C20.2536 10.9601 21.4751 11.7781 21.805 12.7244C22.1349 13.6707 22.0565 14.7632 22.5986 15.6079C23.0711 16.3439 23.9396 16.7556 24.4086 17.4916C25.3002 18.8924 24.4175 20.6994 23.6186 22.1554C18.1511 32.1051 16.5016 44.0917 19.0802 55.1462C13.8535 56.939 9.05468 59.9615 5.18322 63.9018C9.69844 61.3106 14.5186 59.2487 19.5117 57.7731C13.6305 60.7974 8.43945 65.1529 4.44138 70.4191H4.44316ZM61.2561 31.9019C61.4879 29.8097 63.4816 28.9418 65.3362 28.646C67.444 28.3091 69.3289 28.7885 71.2995 29.521C72.0288 29.7919 72.7992 30.1394 73.1237 30.9004C73.4055 31.5615 73.1861 32.2512 72.7082 32.7573C72.1091 33.39 71.2317 33.7678 70.4274 34.0601C69.5447 34.3809 68.5425 34.6214 67.5974 34.5626C66.5881 34.4985 65.6643 34.0458 64.746 33.6627C63.7045 33.2296 62.6631 32.7983 61.6235 32.3617C61.5664 32.3367 61.5182 32.3047 61.4808 32.2655C61.3399 32.2191 61.2365 32.0979 61.2579 31.9001L61.2561 31.9019ZM49.0925 40.6272C50.8847 41.2331 52.3041 42.1278 53.1351 43.8832C53.4009 44.4428 53.7932 45.1592 53.2439 45.6707C52.9158 45.9754 52.3915 46.1233 51.9939 46.3104C51.5498 46.5172 51.104 46.7257 50.66 46.9324C50.4674 47.0215 50.216 46.993 50.1054 46.7863C49.886 46.3782 49.31 46.3871 48.9017 46.3942C48.3382 46.4031 47.8745 46.5528 47.6641 47.1231C47.3217 48.0498 47.7176 49.0763 48.4041 49.725C48.611 49.9193 48.5236 50.2133 48.3221 50.3612C47.0221 51.3147 45.4047 52.0186 44.6147 53.496C44.6147 53.5013 44.6147 53.5049 44.6147 53.5102C44.3116 55.3637 44.242 57.4095 46.2357 58.3006C47.9441 59.0651 50.1446 58.6766 51.894 58.2685C52.4022 58.1491 52.618 58.9315 52.1098 59.0509C50.0358 59.5356 47.4055 59.9526 45.4653 58.8139C44.5701 58.2881 44.0815 57.561 43.8426 56.7359C43.543 57.2028 43.1346 57.5913 42.6727 57.9014C41.1142 58.944 39.1651 58.8477 37.3782 58.723C36.8593 58.6873 36.8575 57.8765 37.3782 57.9121C38.9546 58.0226 40.6844 58.1598 42.095 57.308C42.7013 56.9408 43.2273 56.3973 43.4431 55.7094C43.6785 54.9573 43.6143 54.1483 43.8122 53.3837C43.2862 52.0507 42.3393 50.9654 41.1017 50.24C40.7219 50.0173 40.9323 49.5325 41.3068 49.4844C42.3464 49.3525 42.2626 47.5472 41.8257 46.9449C41.2586 46.1643 40.3028 46.0306 39.4326 46.2801C39.2685 46.4726 38.9332 46.5261 38.771 46.2409C38.4785 45.7241 38.1129 45.4283 37.6422 45.0879C37.3479 44.8758 37.2302 44.662 37.257 44.2913C37.3158 43.4608 37.9007 42.6571 38.4714 42.0921C41.2622 39.3263 45.6258 39.4564 49.0961 40.6272H49.0925ZM29.1146 29.4675C30.7748 28.3893 32.7774 27.9741 34.7354 28.2343C36.3225 28.4446 38.0559 29.0968 39.0884 30.3764C39.495 30.879 39.9551 31.6952 39.7839 32.3706C39.709 32.6647 39.5235 32.7752 39.2382 32.8447C38.7745 32.9587 38.302 33.0104 37.8401 33.1458C35.9659 33.6947 34.188 34.3541 32.2621 33.5842C30.7891 32.9944 29.6817 31.7593 29.2804 30.2321C28.9577 30.2018 28.758 29.6974 29.111 29.4675H29.1146Z" fill="#CBFF00"/>
<path d="M64.7169 32.7778C65.6317 33.1573 66.5929 33.6777 67.5951 33.749C68.5438 33.8167 69.5602 33.5387 70.434 33.1912C71.1562 32.9025 72.763 32.2396 72.3653 31.2166C72.0389 30.3772 70.5464 30.0921 69.7813 29.8444C69.5566 29.7713 69.3302 29.7036 69.1019 29.643C69.1625 29.6965 69.2178 29.7571 69.2588 29.8266C69.3587 29.9941 69.373 30.1972 69.3605 30.3915C69.3284 30.944 69.1108 31.4821 68.7613 31.9134C68.5063 32.2289 68.1532 32.498 67.7484 32.5211C67.5826 32.53 67.4167 32.498 67.2527 32.4659C66.9549 32.4071 66.625 32.3287 66.452 32.0774C66.3949 31.9936 66.3593 31.8974 66.3307 31.8011C66.0864 31.001 66.1934 30.0992 66.6178 29.3775C66.6303 29.3579 66.6446 29.3383 66.6642 29.3204C65.0628 29.3739 62.4825 29.8159 62.0973 31.6924C62.9693 32.0578 63.8413 32.4196 64.7133 32.7831L64.7169 32.7778Z" fill="#CBFF00"/>
<path d="M14.496 65.8144C12.2455 68.386 10.6049 71.4922 9.82025 74.8194C11.1416 71.7078 12.5451 68.5499 14.496 65.8144Z" fill="#CBFF00"/>
<path d="M39.5872 113.686C39.8422 111.621 39.687 109.525 39.8386 107.449C39.9117 106.436 39.9777 105.349 40.2006 104.321C40.1899 104.332 40.1774 104.344 40.1667 104.355C39.1271 105.38 38.1035 106.42 37.0977 107.479C36.1454 108.48 35.2074 109.498 34.2873 110.53C33.3636 111.563 32.397 112.595 31.8924 113.909C31.8817 113.939 31.8674 113.966 31.8514 113.989H39.6941C39.6157 113.925 39.5693 113.825 39.5854 113.686H39.5872Z" fill="#CBFF00"/>
<path d="M86.5071 74.0961C86.45 73.9802 86.3947 73.8626 86.3466 73.7396C85.6243 76.5358 82.7818 77.7067 80.6276 79.2464C78.3254 80.8896 76.6278 83.2117 74.7536 85.2932C72.9774 87.266 70.9731 88.7951 68.6976 90.1548C66.1279 91.6893 63.5458 93.2041 60.9707 94.7278C58.5134 96.182 56.0882 97.7895 53.5096 99.0227C52.3023 99.6001 51.0344 100.037 49.738 100.211C50.2658 100.657 50.6688 101.291 51.104 101.819C52.9764 104.084 54.9736 106.244 57.151 108.219C58.9253 109.828 60.5089 111.503 61.158 113.873C61.1705 113.918 61.1722 113.961 61.1722 114H70.324C70.0993 113.927 69.9263 113.681 70.0832 113.421C71.7113 110.71 72.8776 107.834 74.0135 104.893C76.034 99.6625 78.2702 94.5157 80.7186 89.4705C81.9009 87.0326 83.2062 84.6516 84.3511 82.1958C85.4888 79.7579 86.3787 77.1774 86.2913 74.4543C86.2859 74.2707 86.3822 74.1531 86.5089 74.0996L86.5071 74.0961Z" fill="#CBFF00"/>
<path d="M27.7993 113.736C28.3985 111.164 28.8585 108.562 29.2241 105.946C30.5223 96.6721 30.7238 87.2749 32.2878 78.0346C32.2878 78.0292 32.2913 78.0239 32.2913 78.0185C32.0934 77.3342 31.9026 76.6481 31.7189 75.9637C31.4996 77.3253 30.8237 78.653 29.9035 79.6973C28.3343 81.4759 26.164 82.5951 24.0312 83.634C16.2437 87.4282 8.21014 90.7216 0 93.4821L0.133745 93.5516V113.884L0.247876 113.998H27.8225C27.7886 113.925 27.7761 113.836 27.7993 113.736Z" fill="#CBFF00"/>
<path d="M28.5823 113.944C28.5787 113.96 28.5716 113.975 28.5662 113.991H31.1234C31.0788 113.912 31.0664 113.811 31.1109 113.695C31.6709 112.237 32.6891 111.107 33.7145 109.958C34.9218 108.605 36.1576 107.277 37.4183 105.976C38.5222 104.838 39.6456 103.718 40.7887 102.622C41.7838 101.669 42.7985 100.748 44.1145 100.268C44.6994 100.056 45.3128 99.9296 45.9352 99.8529C41.4788 98.3595 38.6096 93.8044 36.6711 89.7981C35.1215 86.5939 33.875 83.2203 32.8193 79.7933C32.4912 81.9372 32.2273 84.0917 32.0026 86.2499C31.0343 95.4974 30.699 104.861 28.5805 113.946L28.5823 113.944Z" fill="#CBFF00"/>
<path d="M107.992 92.675C104.897 90.8501 102.154 88.43 98.905 86.892C96.7954 85.894 94.454 85.2542 92.701 83.7127C91.5811 82.7272 90.7822 81.4369 89.9994 80.168C88.9704 78.5 88.1002 76.8747 87.0962 75.2119C87.016 77.8816 86.0833 80.4175 84.9456 82.8216C83.7473 85.3558 82.4062 87.8205 81.19 90.3458C79.9328 92.9531 78.7327 95.587 77.5896 98.246C76.427 100.949 75.3392 103.683 74.2853 106.43C73.3009 108.99 72.1953 111.473 70.7811 113.829C70.7276 113.918 70.6563 113.971 70.5796 114H121.793L121.859 113.914C121.859 108.784 121.996 104.728 121.996 99.5968L122 99.374C117.585 96.667 112.456 95.309 107.996 92.6786L107.992 92.675Z" fill="#CBFF00"/>
<path d="M55.925 108.188C53.9509 106.372 52.1498 104.35 50.4468 102.281C50.0331 101.778 49.5873 100.965 48.9952 100.657C48.4781 100.388 47.672 100.538 47.1103 100.568C45.7318 100.639 44.3694 100.853 43.1943 101.625C42.5541 102.045 41.9727 102.566 41.4146 103.109C41.4092 103.149 41.3985 103.19 41.3807 103.232C40.7601 104.599 40.7209 106.315 40.6264 107.787C40.4998 109.751 40.6406 111.73 40.3981 113.685C40.3803 113.824 40.3072 113.923 40.2126 113.988H60.3457C59.6288 111.491 57.7742 109.889 55.925 108.188Z" fill="#CBFF00"/>
</svg>
