<?xml version="1.0" encoding="UTF-8"?>
<svg id="Layer_1" xmlns="http://www.w3.org/2000/svg" version="1.1" viewBox="0 0 122 114">
  <!-- Generator: Adobe Illustrator 29.8.2, SVG Export Plug-In . SVG Version: 2.1.1 Build 3)  -->
  <defs>
    <style>
      .st0 {
        fill: #dedc00;
      }
    </style>
  </defs>
  <path class="st0" d="M35.7,29.4c.2.9-.4,1.8-1.1,2.4,0,0-.2.2-.3.2-.5.3-1.1,0-1.5-.5-.6-.7-.7-1.8-.2-2.5-.9.1-1.8.4-2.7.8.4,1.9,2.1,3.2,4,3.3,1,0,2-.3,2.9-.6.5-.1.9-.3,1.4-.4.5-.1.8,0,.5-.6-.5-1.2-1.9-2-3.2-2.3,0,0,0,.1,0,.2h0Z"/>
  <path class="st0" d="M38.1,44.2c0,.4.5.5.7.8.2.2.3.3.4.5,1.4-.4,3,.1,3.5,1.6.4.9.1,2.3-.7,2.9.9.7,1.6,1.5,2.2,2.6.8-1.1,2.1-1.8,3.2-2.6-.8-1-1.2-2.7-.3-3.7.7-.8,2.5-.9,3.3-.1.4-.2.7-.3,1.1-.5.4-.2,1-.3.9-.8-.1-.8-.9-1.8-1.6-2.3-.8-.6-1.8-1-2.8-1.3-1-.3-2-.5-3.1-.6-1.9-.1-3.9.3-5.4,1.4-.4.3-.7.6-1,.9-.2.3-.7.9-.7,1.2h0Z"/>
  <path class="st0" d="M17.1,62.8c-1,.9-1.8,1.9-2.6,3,1.5-1.7,3.3-3.2,5.2-4.3-1,0-1.9.6-2.6,1.3Z"/>
  <path class="st0" d="M4.4,70.4c4.2-4.9,10.1-8.3,16.5-9.6-.4.2-.8.4-1.2.7.1,0,.3,0,.4,0,.6.2,1,.6,1.5,1,2.5,2.5,5,5,7.5,7.5.9.9,1.8,1.8,2.3,3,.2,0,.4,0,.5.3.8,3.1,1.7,6.1,2.7,9.1,1,2.8,2.1,5.6,3.5,8.3,2.1,3.9,5.5,8.7,10.4,8.8,2.6,0,5-1.2,7.2-2.5,2.4-1.4,4.8-2.9,7.3-4.3,2.4-1.4,4.9-2.8,7.2-4.3,2.1-1.4,3.7-3.2,5.3-5,1.5-1.8,3.1-3.6,5-4.9,2-1.4,4.6-2.5,5.2-5,0-.3.3-.3.6-.2-.2-.8,0-1.6.5-2.2,2.1,2.3,4.3,4.6,6.4,6.9-1.5-2.3-3-4.6-4.6-7.1-.7-1.1.1-2.2.7-3.1.5-.9.9-1.8,1.4-2.6.6.7,1.1,1.4,1.7,2,1.9,2.5,3.6,5.1,5.1,7.8-.6-3.7-2.8-7.1-5.6-10-.3-.1.3-.7.3-1.1.1-.5.1-1,0-1.5.8.2,1.6.5,2.4.9,2.7,1.3,4.8,3.6,5.9,6.4-.6-3.2-3-5.5-5.3-7.5-.9-1.6-.1-3.1.8-4.6,4.5-7.3,4.1-16.8-.3-23.8-.1-1.2.4-2.4-.1-3.5-.5-1.2-1.5-2.2-1.6-3.5-.1-3.1-.4-6.5,1.1-9.5,1.6-3.1,3.7-5.7,6.5-7.8,3.1-2.2,5.8-4.2,8.7-6.1l-.3-.4c-8-.5-14.4,6.8-22.3,8.5-7.5,1.6-15-2.1-22.7-2.5-5.4-.3-10.8,1-16.2.3-2-.3-3.9-.8-5.9-.7-2.1.2-4.1,1.1-6.1,1.2-3.5.3-6.8-1.6-9.6-3.7C24.1,4,21.5,1.5,18.4,0c.4,3.9.8,7.8,1.2,11.6.7-.7,2,.1,2.3,1.1.3.9.3,2,.8,2.9.5.7,1.3,1.1,1.8,1.9.9,1.4,0,3.2-.8,4.7-5.5,9.9-7.1,21.9-4.5,33-5.2,1.8-10,4.8-13.9,8.8,4.5-2.6,9.3-4.7,14.3-6.1-5.9,3-11.1,7.4-15.1,12.6h0ZM61.3,31.9c.2-2.1,2.2-3,4.1-3.3,2.1-.3,4,.1,6,.9.7.3,1.5.6,1.8,1.4.3.7,0,1.4-.4,1.9-.6.6-1.5,1-2.3,1.3-.9.3-1.9.6-2.8.5-1,0-1.9-.5-2.9-.9-1-.4-2.1-.9-3.1-1.3,0,0-.1,0-.1,0-.1,0-.2-.2-.2-.4h0ZM49.1,40.6c1.8.6,3.2,1.5,4,3.3.3.6.7,1.3.1,1.8-.3.3-.9.5-1.2.6-.4.2-.9.4-1.3.6-.2,0-.4,0-.6-.1-.2-.4-.8-.4-1.2-.4-.6,0-1,.2-1.2.7-.3.9,0,2,.7,2.6.2.2.1.5,0,.6-1.3,1-2.9,1.7-3.7,3.1h0c-.3,1.9-.4,3.9,1.6,4.8,1.7.8,3.9.4,5.7,0,.5-.1.7.7.2.8-2.1.5-4.7.9-6.6-.2-.9-.5-1.4-1.3-1.6-2.1-.3.5-.7.9-1.2,1.2-1.6,1-3.5.9-5.3.8-.5,0-.5-.8,0-.8,1.6.1,3.3.2,4.7-.6.6-.4,1.1-.9,1.3-1.6.2-.8.2-1.6.4-2.3-.5-1.3-1.5-2.4-2.7-3.1-.4-.2-.2-.7.2-.8,1-.1,1-1.9.5-2.5-.6-.8-1.5-.9-2.4-.7-.2.2-.5.2-.7,0-.3-.5-.7-.8-1.1-1.2-.3-.2-.4-.4-.4-.8,0-.8.6-1.6,1.2-2.2,2.8-2.8,7.2-2.6,10.6-1.5h0ZM29.1,29.5c1.7-1.1,3.7-1.5,5.6-1.2,1.6.2,3.3.9,4.4,2.1.4.5.9,1.3.7,2,0,.3-.3.4-.5.5-.5.1-.9.2-1.4.3-1.9.5-3.7,1.2-5.6.4-1.5-.6-2.6-1.8-3-3.4-.3,0-.5-.5-.2-.8h0Z"/>
  <path class="st0" d="M64.7,32.8c.9.4,1.9.9,2.9,1,.9,0,2-.2,2.8-.6.7-.3,2.3-1,1.9-2-.3-.8-1.8-1.1-2.6-1.4-.2,0-.5-.1-.7-.2,0,0,.1.1.2.2,0,.2.1.4.1.6,0,.6-.2,1.1-.6,1.5-.3.3-.6.6-1,.6-.2,0-.3,0-.5,0-.3,0-.6-.1-.8-.4,0,0,0-.2-.1-.3-.2-.8-.1-1.7.3-2.4,0,0,0,0,0,0-1.6,0-4.2.5-4.6,2.4.9.4,1.7.7,2.6,1.1h0Z"/>
  <path class="st0" d="M14.5,65.8c-2.3,2.6-3.9,5.7-4.7,9,1.3-3.1,2.7-6.3,4.7-9Z"/>
  <path class="st0" d="M39.6,113.7c.3-2.1,0-4.2.3-6.2,0-1,.1-2.1.4-3.1,0,0,0,0,0,0-1,1-2.1,2.1-3.1,3.1-1,1-1.9,2-2.8,3.1-.9,1-1.9,2.1-2.4,3.4,0,0,0,0,0,0h7.8c0,0-.1-.2-.1-.3h0Z"/>
  <path class="st0" d="M86.5,74.1c0-.1-.1-.2-.2-.4-.7,2.8-3.6,4-5.7,5.5-2.3,1.6-4,4-5.9,6-1.8,2-3.8,3.5-6.1,4.9-2.6,1.5-5.2,3-7.7,4.6-2.5,1.5-4.9,3.1-7.5,4.3-1.2.6-2.5,1-3.8,1.2.5.4.9,1.1,1.4,1.6,1.9,2.3,3.9,4.4,6,6.4,1.8,1.6,3.4,3.3,4,5.7,0,0,0,0,0,.1h9.2c-.2,0-.4-.3-.2-.6,1.6-2.7,2.8-5.6,3.9-8.5,2-5.2,4.3-10.4,6.7-15.4,1.2-2.4,2.5-4.8,3.6-7.3,1.1-2.4,2-5,1.9-7.7,0-.2,0-.3.2-.4h0Z"/>
  <path class="st0" d="M27.8,113.7c.6-2.6,1.1-5.2,1.4-7.8,1.3-9.3,1.5-18.7,3.1-27.9,0,0,0,0,0,0-.2-.7-.4-1.4-.6-2.1-.2,1.4-.9,2.7-1.8,3.7-1.6,1.8-3.7,2.9-5.9,3.9-7.8,3.8-15.8,7.1-24,9.8h.1v20.4h.1c0,.1,27.6.1,27.6.1,0,0,0-.2,0-.3Z"/>
  <path class="st0" d="M28.6,113.9s0,0,0,0h2.6c0,0,0-.2,0-.3.6-1.5,1.6-2.6,2.6-3.7,1.2-1.4,2.4-2.7,3.7-4,1.1-1.1,2.2-2.3,3.4-3.4,1-1,2-1.9,3.3-2.4.6-.2,1.2-.3,1.8-.4-4.5-1.5-7.3-6-9.3-10.1-1.5-3.2-2.8-6.6-3.9-10-.3,2.1-.6,4.3-.8,6.5-1,9.2-1.3,18.6-3.4,27.7h0Z"/>
  <path class="st0" d="M108,92.7c-3.1-1.8-5.8-4.2-9.1-5.8-2.1-1-4.5-1.6-6.2-3.2-1.1-1-1.9-2.3-2.7-3.5-1-1.7-1.9-3.3-2.9-5,0,2.7-1,5.2-2.2,7.6-1.2,2.5-2.5,5-3.8,7.5-1.3,2.6-2.5,5.2-3.6,7.9-1.2,2.7-2.3,5.4-3.3,8.2-1,2.6-2.1,5-3.5,7.4,0,0-.1.1-.2.2h51.3c0-5.2.1-9.3.1-14.4v-.2c-4.4-2.7-9.5-4.1-14-6.7h0Z"/>
  <path class="st0" d="M55.9,108.2c-2-1.8-3.8-3.8-5.5-5.9-.4-.5-.9-1.3-1.5-1.6-.5-.3-1.3-.1-1.9,0-1.4,0-2.7.3-3.9,1.1-.6.4-1.2.9-1.8,1.5,0,0,0,0,0,.1-.6,1.4-.7,3.1-.8,4.6-.1,2,0,3.9-.2,5.9,0,.1,0,.2-.2.3h20.1c-.7-2.5-2.6-4.1-4.4-5.8Z"/>
</svg>