<?xml version="1.0" encoding="UTF-8"?>
<svg id="Layer_1" xmlns="http://www.w3.org/2000/svg" version="1.1" viewBox="0 0 792 519">
  <!-- Generator: Adobe Illustrator 29.8.2, SVG Export Plug-In . SVG Version: 2.1.1 Build 3)  -->
  <defs>
    <style>
      .st0 {
        fill: #dedc00;
      }
    </style>
  </defs>
  <path class="st0" d="M719.1,0C700.2,0,683,25.6,670.1,67.7,653.1,25.6,630.4,0,605.6,0s-47.2,25.3-64.2,66.8C516.9,25.3,484.4,0,448.7,0s-86.4,41.8-111.7,106.1C296.9,41.8,232.2,0,159.2,0S11.4,48.6-27.6,121.7C-73.7,48.6-155.4,0-248.4,0-392.3,0-509,116.3-509,259.7s116.7,259.7,260.6,259.7,174.7-48.6,220.8-121.7c39,73.1,108.1,121.7,186.8,121.7s137.7-41.8,177.8-106.1c25.2,64.3,65.8,106.1,111.7,106.1s68.2-25.3,92.7-66.8c17,41.5,39.5,66.8,64.2,66.8s47.5-25.6,64.5-67.7c13,42,30.1,67.7,49,67.7,40.2,0,72.9-116.3,72.9-259.7S759.4,0,719.1,0Z"/>
</svg>