<?xml version="1.0" encoding="UTF-8"?>
<svg id="Layer_1" xmlns="http://www.w3.org/2000/svg" version="1.1" viewBox="0 0 1920 760">
  <!-- Generator: Adobe Illustrator 29.8.2, SVG Export Plug-In . SVG Version: 2.1.1 Build 3)  -->
  <defs>
    <style>
      .st0 {
        fill: #D3D800;
      }

      .st1 {
        fill: #fff;
      }
    </style>
  </defs>
  <path class="st1" d="M2014.1-1.2l-28.4,22c-28.1,21.8-92.6,26.2-123.2,8.3l-29.8-17.4c-30.7-18-95.5-13.5-123.4,8.5l-26.8,21.1c-27.9,22-92.6,26.4-123.4,8.5l-29.6-17.2c-30.8-18-95.8-13.4-123.6,8.7l-25.9,20.6c-27.7,22-92.3,26.6-123.3,8.9l-31.4-18c-30.8-17.7-95.2-13.2-123,8.7l-27.4,21.5c-28,22-92.9,26.4-123.5,8.4l-27.3-16.1c-30.2-17.8-94-13.8-122.7,7.7l-29.9,22.4c-28.6,21.5-92.4,25.5-122.7,7.7l-30.6-18c-30.5-17.9-95.1-13.7-123.3,8.2l-28.4,22c-28.1,21.8-92.6,26.2-123.2,8.3l-29.8-17.4c-30.7-18-95.5-13.5-123.4,8.5l-26.8,21.1c-27.9,22-92.6,26.4-123.4,8.5l-29.6-17.2c-30.9-18-95.8-13.4-123.6,8.7l-25.9,20.6c-27.7,22-92.3,26.6-123.3,8.9l-31.4-18c-18.7-10.7-49.6-13.3-77.3-8.8l35.8,518.5c28,.7,58.4-6.1,75.4-19.3l28.6-22.1c28.2-21.9,92.9-26.1,123.3-8.1l28.5,16.9c30.5,18.1,95.5,13.7,123.6-8.3l27-21.1c28-21.9,92.7-26.4,123.4-8.4l29.5,17.2c30.7,18,95.5,13.5,123.4-8.5l27.2-21.3c27.8-21.9,92.2-26.4,123.2-8.7l31.1,17.9c30.9,17.8,95.5,13.2,123.2-8.8l27.8-22c27.5-21.7,91.2-26.5,122.6-9.2l32.7,18.1c31.3,17.4,95.1,12.6,122.6-9.2l24.8-19.6c27.8-22,92.7-26.5,123.5-8.6l30.1,17.5c30.6,17.8,94.9,13.5,123-8.3l28.6-22.1c28.2-21.9,92.9-26.1,123.3-8.1l28.5,16.9c30.5,18.1,95.5,13.7,123.6-8.3l27-21.1c28-21.9,92.7-26.4,123.4-8.4l29.5,17.2c30.7,18,95.5,13.5,123.4-8.5l27.2-21.3c27.8-21.9,92.2-26.4,123.1-8.7l31.1,17.9c14.8,8.5,37.5,11.9,60,10.7l-35.9-519.4c-22.5,1.9-44.5,8.3-58,18.8h.2Z"/>
  <path class="st0" d="M2021.8,67.3l-28.2,23.9c-28,23.7-92.5,28-123.2,8.3l-30-19.2c-30.9-19.8-95.6-15.4-123.5,8.5l-26.7,22.9c-27.8,23.8-92.5,28.3-123.4,8.6l-29.7-19c-31-19.8-95.9-15.2-123.6,8.7l-25.8,22.4c-27.5,23.9-92.2,28.5-123.3,8.9l-31.5-19.9c-31-19.6-95.3-15-123,8.7l-27.2,23.3c-27.9,23.9-92.7,28.3-123.5,8.4l-27.4-17.7c-30.3-19.6-94.2-15.7-122.7,7.6l-29.8,24.4c-28.5,23.3-92.3,27.3-122.7,7.6l-30.7-19.9c-30.6-19.8-95.2-15.6-123.3,8.2l-28.2,23.9c-28,23.7-92.5,28-123.2,8.3l-30-19.2c-30.8-19.8-95.6-15.4-123.4,8.5l-26.7,22.9c-27.8,23.8-92.5,28.3-123.4,8.6l-29.7-19c-31-19.8-95.9-15.2-123.6,8.7l-25.8,22.4c-27.5,23.9-92.2,28.5-123.3,8.9l-31.5-19.9c-18.8-11.9-49.8-14.9-77.4-10.1l39.2,567.3c28.1.9,58.4-6.3,75.3-20.6l28.5-24c28.1-23.7,92.8-28,123.3-8.1l28.6,18.6c30.6,20,95.6,15.6,123.6-8.3l26.8-22.9c27.9-23.8,92.5-28.2,123.4-8.4l29.6,19c30.8,19.8,95.6,15.4,123.4-8.5l27-23.2c27.7-23.8,92.1-28.3,123.2-8.7l31.3,19.8c31,19.7,95.7,15,123.2-8.8l27.7-23.9c27.4-23.6,91.1-28.4,122.6-9.2l32.8,20c31.4,19.2,95.2,14.4,122.6-9.2l24.7-21.3c27.7-23.9,92.6-28.4,123.5-8.6l30.2,19.3c30.7,19.7,95.1,15.4,123-8.3l28.4-24c28.1-23.7,92.8-28,123.3-8.1l28.7,18.6c30.6,20,95.6,15.6,123.6-8.3l26.8-22.9c27.9-23.8,92.5-28.2,123.4-8.4l29.6,19c30.8,19.8,95.6,15.4,123.4-8.5l27-23.2c27.7-23.8,92.1-28.3,123.2-8.7l31.3,19.8c14.9,9.4,37.6,13.3,60.1,12.1l-39.3-568.3c-22.5,1.9-44.4,8.8-57.9,20.2h.3Z"/>
</svg>