<svg width="2466" height="285" viewBox="0 0 2466 285" fill="none" xmlns="http://www.w3.org/2000/svg">
<path d="M2447.76 67.3809C2448.75 67.2783 2449.74 67.1828 2450.73 67.0996L2465.79 285H8.05176L0 168.504C27.6842 164.019 58.6053 166.581 77.3281 177.312L108.683 195.324C139.669 213.11 204.293 208.475 231.965 186.466L257.898 165.835C285.706 143.753 350.615 139.162 381.472 157.113L411.079 174.333C441.861 192.227 506.566 187.744 534.453 165.783L561.271 144.683C589.225 122.685 654.002 118.229 684.719 136.19L714.552 153.614C745.121 171.491 809.624 167.148 837.732 145.329L866.108 123.303C894.285 101.448 958.861 97.1632 989.365 115.107L1019.94 133.109C1050.15 150.885 1113.97 146.873 1142.6 125.396L1172.5 102.95C1201.12 81.4732 1264.94 77.4605 1295.15 95.2363L1322.42 111.295C1353.07 129.324 1417.93 124.925 1445.95 102.923L1473.31 81.4697C1501.13 59.6387 1565.48 55.087 1596.32 72.8193L1627.67 90.7998C1658.66 108.585 1723.29 103.951 1750.96 81.9414L1776.89 61.3105C1804.7 39.2289 1869.61 34.6372 1900.46 52.5889L1930.07 69.8086C1960.85 87.7024 2025.56 83.22 2053.45 61.2588L2080.26 40.1572C2108.22 18.1602 2172.99 13.7041 2203.71 31.665L2233.54 49.0898C2264.11 66.9668 2328.62 62.6238 2356.72 40.8047L2385.1 18.7783L2385.1 18.8096C2398.62 8.31466 2420.6 1.86289 2443.11 0L2447.76 67.3809Z" fill="#D3D800"/>
<path d="M2356.72 40.8048L2385.1 18.7785L2385.1 18.8098C2398.62 8.31466 2420.6 1.86288 2443.11 0L2450.73 67.0993C2428.22 68.9917 2406.28 75.9061 2392.82 87.2971L2392.82 87.2628L2364.57 111.169C2336.59 134.851 2272.09 139.185 2241.39 119.436L2211.43 100.188C2180.58 80.3468 2115.81 84.8029 2087.98 108.68L2061.29 131.585C2033.53 155.423 1968.83 159.909 1937.92 140.141L1908.18 121.118C1877.2 101.286 1812.29 105.889 1784.61 129.859L1758.8 152.256C1731.26 176.148 1666.64 180.8 1635.52 161.149L1604.04 141.283C1573.07 121.691 1508.72 126.255 1481.02 149.952L1453.79 173.237C1425.9 197.119 1361.05 201.512 1330.27 181.597L1302.88 163.859C1272.54 144.223 1208.72 148.201 1180.22 171.505L1150.45 195.86C1121.95 219.164 1058.13 223.142 1027.79 203.506L997.084 183.621C966.45 163.799 901.872 168.07 873.825 191.79L845.579 215.697C817.599 239.378 753.096 243.712 722.397 223.964L692.438 204.716C661.592 184.874 596.815 189.33 568.99 213.208L542.297 236.112C514.539 259.951 449.835 264.436 418.923 244.668L389.191 225.645C358.205 205.813 293.297 210.416 265.619 234.387L239.808 256.783C212.266 280.675 147.643 285.327 116.528 265.677L85.0432 245.776C66.2426 233.919 35.2909 230.919 7.62324 235.645L0 168.504C27.6843 164.02 58.6057 166.581 77.3286 177.312L108.683 195.324C139.669 213.11 204.293 208.475 231.965 186.466L257.899 165.835C285.707 143.753 350.615 139.162 381.472 157.114L411.079 174.333C441.862 192.227 506.566 187.744 534.453 165.783L561.271 144.682C589.226 122.685 654.003 118.229 684.719 136.19L714.552 153.614C745.122 171.491 809.624 167.148 837.732 145.329L866.109 123.303C894.285 101.448 958.862 97.1628 989.366 115.107L1019.94 133.109C1050.15 150.885 1113.97 146.873 1142.6 125.396L1172.5 102.95C1201.12 81.4728 1264.94 77.4601 1295.15 95.236L1322.42 111.295C1353.07 129.323 1417.93 124.925 1445.95 102.923L1473.31 81.4702C1501.13 59.6391 1565.48 55.0867 1596.32 72.8191L1627.68 90.7996C1658.66 108.585 1723.29 103.951 1750.96 81.9413L1776.89 61.3101C1804.7 39.2285 1869.61 34.6375 1900.46 52.5891L1930.07 69.8086C1960.85 87.7024 2025.56 83.2198 2053.45 61.2587L2080.26 40.1576C2108.22 18.1603 2172.99 13.7042 2203.71 31.6655L2233.54 49.0897C2264.11 66.9667 2328.62 62.6239 2356.72 40.8048Z" fill="white"/>
</svg>
