<svg width="2464" height="248" viewBox="0 0 2464 248" fill="none" xmlns="http://www.w3.org/2000/svg">
<path d="M2463.29 80.374C2440.74 81.5811 2418.05 77.7372 2403.15 68.2969L2371.88 48.4844C2340.84 28.8631 2276.42 33.3982 2248.73 57.1631L2221.7 80.3311C2193.88 104.208 2129.1 108.664 2098.25 88.8232L2068.66 69.791C2037.82 49.9839 1973.18 54.3963 1945.28 78.21L1918.45 101.124C1890.48 124.977 1825.48 129.344 1794.84 109.386L1766.19 90.7354C1735.62 70.8407 1670.97 75.0815 1642.86 98.8066L1614.41 122.796C1586.42 146.409 1522.06 150.733 1491.36 131.054L1461.19 111.718C1430.27 91.9155 1365.36 96.4496 1337.68 120.352L1312.99 141.672C1285.64 165.276 1221.87 170.076 1190.44 150.895L1157.6 130.846C1126.17 111.665 1062.4 116.464 1035.05 140.067L1007.37 163.97C979.824 187.793 915.199 192.411 884.154 172.756L852.887 152.943C821.844 133.322 757.425 137.857 729.733 161.622L702.706 184.79C674.881 208.667 610.104 213.123 579.258 193.282L549.666 174.25C518.822 154.443 454.183 158.855 426.283 182.669L399.449 205.583C371.482 229.436 306.488 233.803 275.845 213.845L247.196 195.194C216.628 175.299 151.977 179.54 123.859 203.266L95.4102 227.29C78.4888 241.604 48.1729 248.819 20.1172 247.926L12.1074 132.035C11.1099 132.031 10.1145 132.018 9.12207 131.995L0 0H2457.73L2463.29 80.374Z" fill="#D3D800"/>
</svg>
