<svg width="1920" height="760" viewBox="0 0 1920 760" fill="none" xmlns="http://www.w3.org/2000/svg">
<path d="M2014.1 -1.22153L1985.72 20.8048C1957.62 42.6239 1893.11 46.9667 1862.54 29.0897L1832.71 11.6655C1801.99 -6.29577 1737.22 -1.83972 1709.26 20.1576L1682.45 41.2587C1654.56 63.2198 1589.85 67.7024 1559.07 49.8086L1529.46 32.5891C1498.61 14.6375 1433.7 19.2285 1405.89 41.3101L1379.96 61.9413C1352.29 83.9506 1287.66 88.585 1256.68 70.7996L1225.32 52.8191C1194.48 35.0867 1130.13 39.6391 1102.31 61.4702L1074.95 82.923C1046.93 104.925 982.074 109.323 951.424 91.2947L924.153 75.236C893.943 57.4601 830.123 61.4728 801.498 82.9499L771.599 105.396C742.974 126.873 679.154 130.885 648.944 113.109L618.366 95.1073C587.862 77.1628 523.285 81.4478 495.109 103.303L466.732 125.329C438.624 147.148 374.122 151.491 343.552 133.614L313.719 116.19C283.003 98.2288 218.226 102.685 190.271 124.682L163.453 145.783C135.566 167.744 70.8615 172.227 40.0793 154.333L10.4719 137.114C-20.3849 119.162 -85.2934 123.753 -113.101 145.835L-139.035 166.466C-166.707 188.475 -231.331 193.11 -262.317 175.324L-293.671 157.312C-312.394 146.581 -343.316 144.02 -371 148.504L-335.167 666.995C-307.127 667.647 -276.781 660.871 -259.781 647.682L-231.202 625.547C-202.955 603.687 -138.306 599.429 -107.868 617.441L-79.3412 634.325C-48.8289 652.395 16.165 648.019 44.2623 626.043L71.2207 604.932C99.25 582.993 163.889 578.578 194.603 596.507L224.07 613.737C254.786 631.698 319.563 627.242 347.518 605.245L374.672 583.9C402.493 562.006 466.912 557.481 497.826 575.239L528.964 593.172C559.88 610.962 624.506 606.359 652.182 584.412L679.994 562.393C707.473 540.649 771.241 535.885 802.55 553.239L835.253 571.378C866.562 588.732 930.331 583.968 957.81 562.224L982.613 542.583C1010.43 520.564 1075.34 516.035 1106.12 533.96L1136.17 551.464C1166.74 569.278 1231.1 564.945 1259.21 543.189L1287.79 521.085C1316.04 499.225 1380.69 494.967 1411.13 512.979L1439.66 529.864C1470.17 547.933 1535.16 543.557 1563.26 521.581L1590.22 500.47C1618.25 478.531 1682.89 474.116 1713.6 492.046L1743.07 509.275C1773.78 527.236 1838.56 522.78 1866.51 500.783L1893.67 479.438C1921.49 457.544 1985.91 453.019 2016.82 470.777L2047.96 488.71C2062.8 497.254 2085.45 500.636 2108 499.399L2072.11 -20C2049.6 -18.1371 2027.62 -11.6853 2014.1 -1.19021L2014.1 -1.22153Z" fill="white"/>
<path d="M2021.82 67.2628L1993.57 91.1692C1965.59 114.851 1901.09 119.185 1870.39 99.4364L1840.43 80.1881C1809.58 60.3468 1744.81 64.8029 1716.98 88.6803L1690.29 111.585C1662.53 135.423 1597.83 139.909 1566.92 120.141L1537.18 101.118C1506.2 81.286 1441.29 85.8888 1413.61 109.859L1387.8 132.256C1360.26 156.148 1295.64 160.8 1264.52 141.149L1233.04 121.283C1202.07 101.691 1137.72 106.255 1110.02 129.952L1082.79 153.237C1054.9 177.119 990.047 181.512 959.266 161.597L931.879 143.859C901.541 124.223 837.718 128.201 809.219 151.505L779.453 175.86C750.953 199.164 687.13 203.142 656.792 183.506L626.084 163.621C595.45 143.799 530.872 148.07 502.825 171.79L474.579 195.697C446.599 219.378 382.096 223.712 351.397 203.964L321.438 184.716C290.592 164.874 225.815 169.33 197.99 193.208L171.297 216.112C143.539 239.951 78.8351 244.436 47.9233 224.668L18.1913 205.645C-12.7954 185.813 -77.7032 190.416 -105.381 214.387L-131.192 236.783C-158.734 260.675 -223.357 265.327 -254.472 245.677L-285.957 225.776C-304.757 213.919 -335.709 210.919 -363.377 215.645L-324.171 782.926C-296.115 783.819 -265.799 776.604 -248.878 762.29L-220.428 738.266C-192.311 714.541 -127.66 710.3 -97.0922 730.195L-68.4436 748.845C-37.8007 768.803 27.1938 764.435 55.1613 740.583L81.9951 717.669C109.895 693.855 174.534 689.443 205.378 709.25L234.969 728.282C265.816 748.124 330.593 743.668 358.417 719.79L385.445 696.622C413.137 672.857 477.556 668.322 508.598 687.943L539.866 707.756C570.911 727.411 635.536 722.794 663.082 698.97L690.764 675.068C718.115 651.464 781.881 646.664 813.316 665.846L846.151 685.894C877.586 705.075 941.352 700.276 968.703 676.672L993.39 655.351C1021.07 631.449 1085.98 626.915 1116.9 646.717L1147.08 666.054C1177.77 685.734 1242.13 681.409 1270.12 657.796L1298.57 633.807C1326.69 610.082 1391.34 605.841 1421.9 625.736L1450.55 644.386C1481.2 664.344 1546.19 659.976 1574.16 636.124L1600.99 613.21C1628.89 589.396 1693.53 584.984 1724.37 604.791L1753.97 623.823C1784.81 643.665 1849.59 639.209 1877.41 615.331L1904.44 592.163C1932.13 568.398 1996.55 563.863 2027.6 583.484L2058.86 603.297C2073.76 612.737 2096.45 616.581 2119 615.374L2079.73 47.0993C2057.22 48.9917 2035.28 55.9061 2021.82 67.2971L2021.82 67.2628Z" fill="#CBFF00"/>
</svg>
