<svg width="74" height="74" viewBox="0 0 74 74" fill="none" xmlns="http://www.w3.org/2000/svg">
<circle cx="37" cy="37" r="37" fill="#D3D800"/>
<path d="M30 24.4062C32 23.2516 34.5 24.6955 34.5 27.0049V33.5312H59C60.1046 33.5312 61 34.4267 61 35.5312V38.5312C60.9997 39.6356 60.1044 40.5312 59 40.5312H34.5V46.0566C34.5 48.366 32 49.8099 30 48.6553L13.5 39.1289C11.5 37.9742 11.5 35.0873 13.5 33.9326L30 24.4062Z" fill="black"/>
<rect width="74" height="74" rx="37" transform="matrix(-1 0 0 1 74 0)" fill="#D3D800"/>
<path d="M60 37H17M33.9737 55L17 37L33.9737 19" stroke="black" stroke-width="5"/>
</svg>
