<svg width="253" height="125" viewBox="0 0 253 125" fill="none" xmlns="http://www.w3.org/2000/svg">
<path d="M213.332 0H39.6677C17.7615 0 0 17.8472 0 39.8591V72.5416H0.180812C0.0625882 73.9322 0 75.3298 0 76.7484C0 103.4 21.5029 125 48.0199 125C64.2793 125 78.6539 116.88 87.3399 104.449C96.0259 116.873 110.401 125 126.66 125C142.919 125 157.113 116.978 165.82 104.686C174.527 116.978 188.818 125 204.98 125C231.504 125 253 103.393 253 76.7484C253 75.3298 252.937 73.9253 252.819 72.5416H253V39.8591C253 17.8472 235.239 0 213.332 0Z" fill="black"/>
</svg>
