<svg width="200" height="200" viewBox="0 0 200 200" fill="none" xmlns="http://www.w3.org/2000/svg">
<g clip-path="url(#clip0_7871_404117)">
<path fill-rule="evenodd" clip-rule="evenodd" d="M141.636 17.2461L182.754 58.3642C205.749 81.359 205.749 118.641 182.754 141.636L141.636 182.754C118.641 205.749 81.359 205.749 58.3642 182.754L17.2461 141.636C-5.7487 118.641 -5.7487 81.359 17.2461 58.3642L58.3642 17.2461C81.359 -5.7487 118.641 -5.7487 141.636 17.2461ZM27.5 123.966L27.5 76.0345C27.5 49.2296 49.2296 27.5 76.0345 27.5L123.966 27.5C150.77 27.5 172.5 49.2296 172.5 76.0345V123.966C172.5 150.77 150.77 172.5 123.966 172.5H76.0345C49.2296 172.5 27.5 150.77 27.5 123.966Z" fill="#101010"/>
<path d="M182.439 5.00062C184.611 5.00743 186.746 5.56146 188.645 6.61088C190.627 7.66329 192.258 9.26579 193.34 11.2232C194.428 13.1287 195 15.2821 195 17.473C195 19.6639 194.428 21.8174 193.34 23.7229C192.255 25.6755 190.637 27.2838 188.672 28.3626C186.762 29.4362 184.606 30.0002 182.411 30C180.272 29.9582 178.176 29.386 176.316 28.3352C174.359 27.2548 172.751 25.6462 171.675 23.6956C170.581 21.802 170.003 19.6569 170 17.473C170.002 15.2718 170.58 13.109 171.675 11.1959C172.74 9.22329 174.35 7.5945 176.316 6.50169C178.197 5.49588 180.303 4.97949 182.439 5.00062ZM182.439 7.04756C180.63 7.06408 178.855 7.5334 177.277 8.41216C175.626 9.29749 174.264 10.6324 173.35 12.2602C172.44 13.8487 171.961 15.6451 171.961 17.473C171.961 19.3009 172.44 21.0974 173.35 22.6858C174.254 24.3117 175.607 25.6469 177.249 26.534C178.835 27.4469 180.634 27.9276 182.466 27.9276C184.299 27.9276 186.098 27.4469 187.684 26.534C189.326 25.6469 190.679 24.3117 191.583 22.6858C192.493 21.0974 192.971 19.3009 192.971 17.473C192.971 15.6451 192.493 13.8487 191.583 12.2602C190.676 10.6267 189.312 9.28997 187.656 8.41216C186.062 7.52449 184.266 7.05487 182.439 7.04756ZM177.441 23.914V10.4591H182.082C183.247 10.4049 184.413 10.5244 185.542 10.8138C186.243 11.0448 186.844 11.507 187.244 12.1238C187.644 12.7029 187.864 13.3864 187.876 14.0888C187.882 14.5663 187.79 15.0399 187.606 15.4809C187.422 15.922 187.149 16.3212 186.805 16.6543C186.083 17.4004 185.099 17.8404 184.059 17.8825C184.483 18.0481 184.874 18.2884 185.212 18.592C185.976 19.4287 186.648 20.3435 187.217 21.3212L188.864 24.0504H186.118L184.91 21.9216C184.345 20.7488 183.573 19.686 182.631 18.7831C182.11 18.4458 181.494 18.2832 180.874 18.3191H179.583V24.0504L177.441 23.914ZM179.611 16.3268H182.357C183.257 16.4209 184.163 16.2197 184.938 15.7537C185.167 15.583 185.352 15.36 185.476 15.1035C185.6 14.8469 185.66 14.5645 185.652 14.2799C185.665 13.894 185.538 13.5163 185.295 13.2155C185.072 12.8935 184.756 12.6462 184.389 12.5059C183.675 12.3017 182.933 12.2186 182.192 12.2602H179.693L179.611 16.3268Z" fill="#101010"/>
</g>
<defs>
<clipPath id="clip0_7871_404117">
<rect width="200" height="200" fill="white"/>
</clipPath>
</defs>
</svg>
