<?xml version="1.0" encoding="UTF-8"?>
<svg id="Layer_1" xmlns="http://www.w3.org/2000/svg" version="1.1" viewBox="0 0 646 331">
  <!-- Generator: Adobe Illustrator 29.8.2, SVG Export Plug-In . SVG Version: 2.1.1 Build 3)  -->
  <defs>
    <style>
      .st0 {
        fill: #dedc00;
      }
    </style>
  </defs>
  <path class="st0" d="M291.3,13.4l47.1,23.5L392.7,0l25,32.6L487.2,2.8l.6,38.5,77.9-19.8-24,40.6,78.7-7.8-46.1,38.8,71.7,4.9-63.8,33.2,57.8,17.1-75.2,24.3,38.2,27.7-79.3,13.1,14.9,35.5-75.6.5-9.9,39.9-64.5-12.1-33.8,40.4-47.1-23.5-54.3,36.9-25.1-32.6-69.5,29.8-.6-38.5-77.9,19.8,24-40.6-78.7,7.8,46.1-38.8L0,233l63.8-33.2-57.8-17.1,75.2-24.3-38.2-27.7,79.3-13.1-14.8-35.5,75.6-.5,9.9-39.9,64.5,12.1,33.8-40.4Z"/>
</svg>