<svg width="1278" height="591" viewBox="0 0 1278 591" fill="none" xmlns="http://www.w3.org/2000/svg">
<path fill-rule="evenodd" clip-rule="evenodd" d="M-4 528.867V62.1576L145.185 84.8684L190.202 14.48L343 62.0356L447 0L551 62.0356L703.798 14.48L748.815 84.8684L935.447 56.457L917.077 128.339L1119.3 121.815L1039.35 188.18L1237.32 204.184L1103.61 258.538L1278 295.515L1103.61 332.493L1237.32 386.816L1039.35 402.82L1119.3 469.185L917.077 462.661L935.447 534.573L748.815 506.132L703.798 576.55L551 528.995L447 591L343 528.995L190.202 576.55L145.185 506.132L-4 528.867Z" fill="#CBFF00"/>
</svg>
