<svg width="894" height="554" viewBox="0 0 894 554" fill="none" xmlns="http://www.w3.org/2000/svg">
<path d="M461.228 -0.000884869L514.173 60.9523L598.653 20.6734L619.471 87.8099L721.225 66.3894L707.876 133.167L816.959 132.667L770.757 192.572L876.468 213.042L801.927 260.214L893.939 299.662L798.359 329.441L867.656 383.998L760.4 393.49L800.198 457.829L691.745 446.115L698.155 513.94L599.144 482.142L571.532 546.81L491.642 498.059L432.711 553.216L379.765 492.292L295.285 532.571L274.469 465.405L172.713 486.855L186.063 420.049L76.98 420.549L123.182 360.643L17.4712 340.173L92.011 293.03L-0.00135999 253.582L95.5794 223.803L26.2836 169.217L133.539 159.725L93.7412 95.3869L202.195 107.1L195.783 39.3042L294.795 71.0738L322.406 6.43354L402.296 55.1853L461.228 -0.000884869Z" fill="#D3D800"/>
</svg>
