<svg width="1205" height="697" viewBox="0 0 1205 697" fill="none" xmlns="http://www.w3.org/2000/svg">
<path d="M506.527 142.317C444.935 56.0271 345.6 0 233.575 0C143.023 0 60.7662 36.5743 0 96.152L0.00213623 601C60.7187 660.488 142.865 697 233.34 697C345.406 697 444.738 640.973 506.388 554.683C545.06 640.973 607.43 697 677.768 697C732.53 697 782.46 663.081 820.17 607.371C846.22 663.081 880.753 697 918.646 697C956.539 697 991.579 662.624 1017.75 606.211C1037.62 662.624 1064 697 1093.02 697C1154.8 697 1204.94 540.975 1205 348.5C1205.06 156.025 1155.04 0 1093.25 0C1064.24 0 1037.79 34.3756 1017.92 90.7893C991.79 34.3756 957.056 0 918.88 0C880.705 0 846.432 33.9186 820.344 89.6294C782.672 33.9186 732.764 0 678.003 0C607.624 0 545.257 56.0271 506.527 142.317Z" fill="#D3D800"/>
</svg>
