<svg width="1116" height="511" viewBox="0 0 1116 511" fill="none" xmlns="http://www.w3.org/2000/svg">
<path fill-rule="evenodd" clip-rule="evenodd" d="M0 506.208V4.76284C80.8295 18.5219 149.767 61.1138 192.097 119.723C236.091 47.8016 314.001 0 402.769 0C485.019 0 557.952 41.0758 603.174 104.339C631.609 41.0758 677.4 0 729.073 0C769.279 0 805.922 24.8671 833.582 65.7111C852.736 24.8671 877.899 0 905.928 0C933.957 0 959.459 25.2022 978.645 66.5615C993.236 25.2022 1012.65 0 1033.95 0C1079.32 0 1116.05 114.389 1116 255.5C1115.95 396.611 1079.14 511 1033.78 511C1012.48 511 993.11 485.798 978.517 444.439C959.304 485.798 933.577 511 905.756 511C877.934 511 852.58 486.133 833.454 445.289C805.767 486.133 769.107 511 728.901 511C677.258 511 631.465 469.924 603.072 406.661C557.807 469.924 484.877 511 402.597 511C313.829 511 235.98 463.199 192.005 391.277C149.665 449.845 80.7659 492.419 0 506.208Z" fill="#CBFF00"/>
</svg>
