<svg width="1175" height="668" viewBox="0 0 1175 668" fill="none" xmlns="http://www.w3.org/2000/svg">
<path fill-rule="evenodd" clip-rule="evenodd" d="M0 481.78V85.2595C30.6947 62.892 80.569 48.6244 140.477 46.8008C184.413 45.4465 224.121 37.3443 254.567 23.4911C319.013 -5.82803 420.795 -7.89206 509.462 18.3663C551.415 30.7546 597.419 37.1322 641.756 36.7064C735.491 35.7346 831.405 65.2054 881.971 110.469C905.86 131.854 940.621 150.332 981.865 163.443C1069.1 191.248 1122.53 240.966 1115.64 287.967C1112.39 310.213 1122.63 333.66 1145 355.348C1192.44 401.257 1182.95 452.264 1121.23 483.039C1092.06 497.583 1073.83 517.083 1068.9 539.095C1058.4 585.597 989.614 618.37 896.682 621.199C852.746 622.554 813.038 630.656 782.592 644.509C718.147 673.828 616.365 675.892 527.697 649.634C485.745 637.245 439.74 630.868 395.403 631.294C301.668 632.265 205.755 602.794 155.188 557.531C131.3 536.145 96.5382 517.668 55.2942 504.557C34.9031 498.057 16.3587 490.36 0 481.78Z" fill="#CBFF00"/>
</svg>
