<svg width="212" height="138" viewBox="0 0 212 138" fill="none" xmlns="http://www.w3.org/2000/svg">
<path d="M13.077 97.9912V102.117H15.6313V105.369H9.82687V103.866C8.57942 104.868 7.34894 105.369 5.47352 105.369C1.67176 105.369 0 102.915 0 100.615C0 98.5855 0.848608 96.6413 3.64901 96.4885V96.0894C1.00136 95.7668 0.500678 94.0348 0.500678 92.4896C0.500678 90.435 1.92634 88.3635 5.35471 88.3635C6.25424 88.3635 6.95858 88.4399 8.07874 88.8644V92.1161C6.90766 91.6916 6.25424 91.6152 5.60081 91.6152C4.20061 91.6152 3.75084 92.1925 3.75084 93.067C3.75084 94.1197 4.25152 94.7395 6.34758 94.7395H9.82687V90.1124H13.077V94.7395H15.6313V97.9912H13.077ZM9.82687 97.9912H6.34758C4.07332 97.9912 3.25017 98.6195 3.25017 100.114C3.25017 101.362 3.7763 102.117 5.60081 102.117C7.23013 102.117 8.57942 101.616 9.82687 100.615V97.9912Z" fill="white"/>
<path d="M43.2868 109.695H39.7735V105.373H29.726V109.695H26.2128V101.858H27.9185C30.2691 99.0991 30.2691 97.5878 30.2691 91.5344V91.4495H40.8597V101.85H43.2868V109.695ZM37.3465 101.858V94.9644H33.7824C33.7314 98.3435 33.4005 99.7189 31.7796 101.858H37.3465Z" fill="white"/>
<path d="M58.952 91.4495V105.365H55.4388V97.8256H55.006L49.3628 105.365H45.8495V91.4495H49.3628V98.9632H49.7956L55.4388 91.4495H58.952Z" fill="white"/>
<path d="M65.164 100.236C65.164 101.476 65.7326 101.858 67.7014 101.858C69.2373 101.858 69.7041 101.51 69.7041 100.779C69.7041 99.8625 68.9997 99.6757 68.0323 99.6757H66.8443V96.9759H68.0323C68.813 96.9759 69.3561 96.7891 69.3561 95.9741C69.3561 95.159 68.7367 94.9722 67.625 94.9722C66.1908 94.9722 65.6223 95.2439 65.6223 96.1863H62.109C62.109 93.6987 63.9166 91.4573 67.6165 91.4573C71.0449 91.4573 72.8524 93.427 72.8524 95.2439C72.8524 97.2136 71.8001 97.9183 70.2557 98.1051V98.5381C72.199 98.8098 73.2003 99.7522 73.2003 101.459C73.2003 103.403 71.5286 105.381 67.6929 105.381C63.4498 105.381 61.6423 103.14 61.6423 100.245H65.1555L65.164 100.236Z" fill="white"/>
<path d="M89.3652 101.858V105.373H84.0954V104.023C83.4165 104.727 82.3642 105.373 80.3445 105.373C77.0519 105.373 75.5075 103.267 75.5075 100.779C75.5075 98.2919 77.0435 96.1863 80.3445 96.1863C82.3727 96.1863 83.425 96.8061 84.0954 97.5362V94.9722H77.0689V91.4573H87.6001V101.858H89.3652ZM84.0954 100.779C84.0954 99.7012 83.391 99.3701 81.558 99.3701C79.7251 99.3701 79.0207 99.6927 79.0207 100.779C79.0207 101.866 79.7251 102.189 81.558 102.189C83.391 102.189 84.0954 101.866 84.0954 100.779Z" fill="white"/>
<path d="M105.032 91.4495V105.365H101.519V97.8256H101.086L95.4425 105.365H91.9293V91.4495H95.4425V98.9632H95.8753L101.519 91.4495H105.032ZM94.5769 84.6914H97.004C97.004 86.0413 97.6828 86.313 98.6248 86.313C99.5667 86.313 100.246 86.0413 100.246 84.6914H102.673C102.673 87.8837 100.78 88.7412 98.6248 88.7412C96.4693 88.7412 94.5769 87.9346 94.5769 84.6914Z" fill="white"/>
<path d="M121.351 91.4495V105.365H117.838V100.39H111.651V105.365H108.138V91.4495H111.651V96.8832H117.838V91.4495H121.351Z" fill="white"/>
<path d="M137.508 101.858V105.373H132.238V104.023C131.559 104.727 130.507 105.373 128.487 105.373C125.194 105.373 123.65 103.267 123.65 100.779C123.65 98.2919 125.186 96.1863 128.487 96.1863C130.515 96.1863 131.567 96.8061 132.238 97.5362V94.9722H125.211V91.4573H135.743V101.858H137.508ZM132.238 100.779C132.238 99.7012 131.533 99.3701 129.7 99.3701C127.867 99.3701 127.163 99.6927 127.163 100.779C127.163 101.866 127.867 102.189 129.7 102.189C131.533 102.189 132.238 101.866 132.238 100.779Z" fill="white"/>
<path d="M210.871 0.299276C210.175 -0.0997585 209.31 -0.0997585 208.614 0.299276L93.0677 67.0483C92.3718 67.4474 91.939 68.1945 91.939 69.0011C91.939 69.8076 92.3718 70.5548 93.0677 70.9538L208.614 137.694C208.962 137.898 209.352 138 209.743 138C210.133 138 210.523 137.898 210.871 137.694C211.567 137.295 212 136.548 212 135.742V2.26049C212 1.45393 211.567 0.7068 210.871 0.307766V0.299276ZM207.485 45.8061L119.816 61.9967L207.485 29.6071V45.8061ZM207.485 50.3993V87.6028L106.781 69.0011L207.485 50.3993ZM207.485 108.387L119.816 75.9969L207.485 92.1875V108.387ZM207.485 24.8017L118.008 57.8536L207.485 6.17442V24.8017ZM118.008 80.1485L207.485 113.2V131.828L118.008 80.1485Z" fill="#CBFF00"/>
<path d="M16.9725 63.292V77.2072H13.4592V71.1029H13.0265L10.4297 75.4243H6.64493L4.04819 71.1029H3.6154V77.2072H0.11914V63.292H3.63237L8.33366 71.4764H8.76645L13.4677 63.292H16.981H16.9725Z" fill="white"/>
<path d="M31.3479 71.5875H22.8109C23.1079 72.9374 23.9989 73.693 26.5363 73.693C27.3425 73.693 28.5645 73.693 30.4229 73.26V76.7155C28.3184 77.1994 27.2915 77.1994 26.2647 77.1994C20.0275 77.1994 19.1364 72.7931 19.1364 70.2545C19.1364 66.3915 20.8082 63.2842 25.2973 63.2842C29.7864 63.2842 31.3479 66.1793 31.3479 69.9574V71.5875ZM22.6751 68.8876H27.8092C27.6989 67.3509 26.9182 66.8076 25.2464 66.8076C23.5746 66.8076 22.8448 67.4273 22.6836 68.8876H22.6751Z" fill="white"/>
<path d="M50.0427 81.5294H46.5295V77.2079H36.482V81.5294H32.9687V73.693H34.6744C37.0251 70.9337 37.0251 69.4225 37.0251 63.3691V63.2842H47.6157V73.6845H50.0427V81.5294ZM44.1025 73.693V66.7991H40.5383C40.4874 70.1781 40.1564 71.5535 38.5356 73.693H44.1025Z" fill="white"/>
<path d="M65.7077 63.292V77.2072H62.1945V69.668H61.7617L56.1185 77.2072H52.6052V63.292H56.1185V70.8057H56.5513L62.1945 63.292H65.7077Z" fill="white"/>
<path d="M81.8575 73.6923V77.2072H76.5876V75.8573C75.9087 76.562 74.8565 77.2072 72.8368 77.2072C69.5442 77.2072 67.9997 75.1017 67.9997 72.6141C67.9997 70.1265 69.5357 68.021 72.8368 68.021C74.8649 68.021 75.9172 68.6407 76.5876 69.3709V66.8069H69.5611V63.292H80.0924V73.6923H81.8575ZM76.5876 72.6141C76.5876 71.5359 75.8833 71.2047 74.0503 71.2047C72.2173 71.2047 71.5129 71.5274 71.5129 72.6141C71.5129 73.7008 72.2173 74.0234 74.0503 74.0234C75.8833 74.0234 76.5876 73.7008 76.5876 72.6141Z" fill="white"/>
<path d="M16.3014 49.0543H12.7882V34.1882H6.82246C6.797 41.7019 6.3133 49.0543 0.126953 49.0543V45.5394C3.04616 45.5394 3.28377 40.5982 3.28377 34.1882V30.6733H16.3014V49.0543Z" fill="white"/>
<path d="M32.5862 45.5426V49.0575H27.3163V47.7076C26.6375 48.4123 25.5852 49.0575 23.5655 49.0575C20.2729 49.0575 18.7284 46.952 18.7284 44.4644C18.7284 41.9768 20.2644 39.8712 23.5655 39.8712C25.5937 39.8712 26.6459 40.491 27.3163 41.2211V38.6571H20.2899V35.1422H30.8211V45.5426H32.5862ZM27.3163 44.4644C27.3163 43.3861 26.612 43.055 24.779 43.055C22.946 43.055 22.2417 43.3776 22.2417 44.4644C22.2417 45.5511 22.946 45.8737 24.779 45.8737C26.612 45.8737 27.3163 45.5511 27.3163 44.4644Z" fill="white"/>
<path d="M48.2012 42.4873C48.2012 46.4097 46.1221 49.0501 41.8282 49.0501C36.4225 49.0501 34.8866 45.6965 34.8866 41.6213V37.5715C34.8866 34.2179 36.0492 30.6776 42.1506 30.6776C43.7206 30.6776 44.7474 30.6776 46.3088 30.1342V33.5897C45.0953 34.184 43.7715 34.184 42.1506 34.184C38.6119 34.184 38.3998 35.3216 38.3998 37.4781C39.0787 36.7225 40.4025 35.9414 42.2355 35.9414C46.1221 35.9414 48.2012 38.5903 48.2012 42.4788V42.4873ZM44.688 42.4873C44.688 40.1355 43.8479 39.4648 41.5566 39.4648C39.2654 39.4648 38.3998 40.144 38.3998 42.3599C38.3998 44.5758 39.2399 45.5522 41.5566 45.5522C43.8733 45.5522 44.688 44.873 44.688 42.4958V42.4873Z" fill="white"/>
<path d="M50.365 42.0871C50.365 38.1138 52.7157 35.1422 57.0945 35.1422C61.4733 35.1422 63.8239 38.1138 63.8239 42.0871C63.8239 46.0605 61.4733 49.0575 57.0945 49.0575C52.7157 49.0575 50.365 46.0605 50.365 42.0871ZM60.3022 42.0871C60.3022 39.3873 59.4621 38.6571 57.086 38.6571C54.7099 38.6571 53.8698 39.3873 53.8698 42.0871C53.8698 44.787 54.7099 45.5426 57.086 45.5426C59.4621 45.5426 60.3022 44.787 60.3022 42.0871Z" fill="white"/>
<path d="M80.5068 42.0871C80.5068 46.0605 78.6992 49.0575 74.4562 49.0575C72.8354 49.0575 71.4861 48.4632 70.5696 47.4868V53.379H67.0563V35.1422H70.5696V36.679C71.4861 35.7366 72.8354 35.1422 74.4562 35.1422C78.6992 35.1422 80.5068 38.1138 80.5068 42.0871ZM76.9935 42.0871C76.9935 39.3279 76.0176 38.6571 73.7773 38.6571C71.537 38.6571 70.5611 39.3363 70.5611 42.0871C70.5611 44.8379 71.537 45.5426 73.7773 45.5426C76.0176 45.5426 76.9935 44.8634 76.9935 42.0871Z" fill="white"/>
<path d="M96.2578 45.5426V49.0575H90.9879V47.7076C90.309 48.4123 89.2568 49.0575 87.2371 49.0575C83.9445 49.0575 82.4 46.952 82.4 44.4644C82.4 41.9768 83.936 39.8712 87.2371 39.8712C89.2653 39.8712 90.3175 40.491 90.9879 41.2211V38.6571H83.9615V35.1422H94.4927V45.5426H96.2578ZM90.9879 44.4644C90.9879 43.3861 90.2836 43.055 88.4506 43.055C86.6176 43.055 85.9133 43.3776 85.9133 44.4644C85.9133 45.5511 86.6176 45.8737 88.4506 45.8737C90.2836 45.8737 90.9879 45.5511 90.9879 44.4644Z" fill="white"/>
<path d="M110.523 38.6493H105.686V49.0497H102.173V38.6493H97.3355V35.1344H110.514V38.6493H110.523Z" fill="white"/>
<path d="M111.599 42.0871C111.599 38.1138 113.95 35.1422 118.329 35.1422C122.707 35.1422 125.058 38.1138 125.058 42.0871C125.058 46.0605 122.707 49.0575 118.329 49.0575C113.95 49.0575 111.599 46.0605 111.599 42.0871ZM121.536 42.0871C121.536 39.3873 120.696 38.6571 118.32 38.6571C115.944 38.6571 115.104 39.3873 115.104 42.0871C115.104 44.787 115.944 45.5426 118.32 45.5426C120.696 45.5426 121.536 44.787 121.536 42.0871Z" fill="white"/>
<path d="M141.743 42.0871C141.743 46.0605 139.935 49.0575 135.692 49.0575C134.071 49.0575 132.722 48.4632 131.806 47.4868V53.379H128.292V35.1422H131.806V36.679C132.722 35.7366 134.071 35.1422 135.692 35.1422C139.935 35.1422 141.743 38.1138 141.743 42.0871ZM138.23 42.0871C138.23 39.3279 137.254 38.6571 135.013 38.6571C132.773 38.6571 131.797 39.3363 131.797 42.0871C131.797 44.8379 132.773 45.5426 135.013 45.5426C137.254 45.5426 138.23 44.8634 138.23 42.0871Z" fill="white"/>
<path d="M157.145 35.1422V49.0575H153.632V41.5183H153.199L147.556 49.0575H144.042V35.1422H147.556V42.656H147.988L153.632 35.1422H157.145Z" fill="white"/>
<path d="M171.834 35.1422V49.0575H168.32V44.6511H163.483V49.0575H159.97V43.4625H163.992V43.0295C161.294 42.7324 159.97 42.2485 159.97 39.3279C159.97 36.4073 161.294 35.1422 166.453 35.1422H171.834ZM168.32 38.6571H165.647C164.001 38.6571 163.483 38.793 163.483 39.8712C163.483 40.9495 163.992 41.1447 165.647 41.1447H168.32V38.6571Z" fill="white"/>
</svg>
