<svg width="157" height="181" viewBox="0 0 157 181" fill="none" xmlns="http://www.w3.org/2000/svg">
<path d="M155.524 0.392528C154.614 -0.130843 153.482 -0.130843 152.572 0.392528L1.4759 87.9402C0.565948 88.4636 0 89.4435 0 90.5014C0 91.5593 0.565948 92.5392 1.4759 93.0626L152.572 180.599C153.027 180.866 153.538 181 154.048 181C154.559 181 155.069 180.866 155.524 180.599C156.434 180.076 157 179.096 157 178.038V2.96484C157 1.90696 156.434 0.927035 155.524 0.403664V0.392528ZM151.096 60.0791L36.4536 81.3146L151.096 38.8324V60.0679V60.0791ZM151.096 66.1034V114.899L19.4086 90.5014L151.096 66.1034ZM151.096 120.924V142.159L36.4536 99.6771L151.096 120.913V120.924ZM151.096 32.5297L34.0899 75.8804L151.096 8.09833V32.5297ZM34.0899 105.122L151.096 148.473V172.904L34.0899 105.122Z" fill="black"/>
</svg>
