<?xml version="1.0" encoding="UTF-8"?>
<svg id="Layer_1" xmlns="http://www.w3.org/2000/svg" version="1.1" viewBox="0 0 120 138">
  <!-- Generator: Adobe Illustrator 29.8.2, SVG Export Plug-In . SVG Version: 2.1.1 Build 3)  -->
  <defs>
    <style>
      .st0 {
        fill: #D3D800;
      }
    </style>
  </defs>
  <path class="st0" d="M118.9.3c-.7-.4-1.6-.4-2.3,0L1.1,67c-.7.4-1.1,1.1-1.1,2s.4,1.6,1.1,2l115.5,66.7c.3.2.7.3,1.1.3s.8-.1,1.1-.3c.7-.4,1.1-1.1,1.1-2V2.3c0-.8-.4-1.6-1.1-2h.1ZM115.5,45.8L27.9,62,115.5,29.6v16.2h0ZM115.5,50.4v37.2L14.8,69l100.7-18.6ZM115.5,92.2v16.2L27.9,76l87.6,16.2h0ZM115.5,24.8L26.1,57.9,115.5,6.2v18.6ZM26.1,80.1l89.4,33.1v18.6L26.1,80.1Z"/>
</svg>