<svg width="46" height="45" viewBox="0 0 46 45" fill="none" xmlns="http://www.w3.org/2000/svg">
<path fill-rule="evenodd" clip-rule="evenodd" d="M23.8502 22.5774L26.602 25.2719L45.8027 43.947C45.9883 44.1328 46.0501 44.3806 45.9573 44.6284C45.8337 44.8451 45.6172 45 45.3699 45H0.599113C0.351761 45 0.135331 44.8761 0.0425741 44.6284C-0.0501831 44.3806 0.011655 44.1328 0.197169 43.947L22.1188 22.4845L0.197169 1.05299C0.011655 0.867171 -0.0501831 0.619408 0.0425741 0.371645C0.135331 0.154852 0.351761 0 0.599113 0H45.3699C45.6172 0 45.8337 0.123882 45.9264 0.371645C46.0192 0.619408 45.9573 0.867171 45.7718 1.05299L23.8502 22.5774ZM37.0527 43.8231L26.1996 26.5505L29.1374 29.5148L43.793 43.8231H37.0527ZM23.9121 25.2719L35.5995 43.8231H20.6656L23.2937 24.3118L23.9121 25.2719ZM43.793 1.26979L25.1488 19.5733L34.2081 1.26979H43.793ZM32.8168 1.26979L23.9121 19.2636L25.7054 1.26979H32.8168ZM2.05231 1.26979H5.20605L16.2751 15.1755L2.05231 1.26979ZM6.78292 1.26979H11.328L19.5525 17.3434L6.752 1.26979H6.78292ZM12.7194 1.26979H17.8829L21.4076 18.2106L12.7194 1.26979ZM19.1505 1.26979H24.4686L22.7371 18.5203L19.1505 1.26979ZM2.05231 43.8231L19.6452 26.6036L8.91634 43.8231H2.05231ZM10.3695 43.8231L21.8714 25.3338L19.367 43.8231H10.3695Z" fill="#D3D800"/>
</svg>
