<svg width="129" height="83" viewBox="0 0 129 83" fill="none" xmlns="http://www.w3.org/2000/svg">
<path d="M8.39217 58.935V61.4202H9.9287V63.3763H6.42961V62.4713C5.67531 63.07 4.93498 63.3763 3.80353 63.3763C1.50573 63.3763 0.5 61.9005 0.5 60.5152C0.5 59.297 1.00985 58.1206 2.70701 58.0301V57.7934C1.10762 57.5985 0.807308 56.5612 0.807308 55.6284C0.807308 54.3963 1.66636 53.1433 3.73369 53.1433C4.27846 53.1433 4.69752 53.1851 5.38197 53.4426V55.3987C4.66958 55.1412 4.27846 55.0994 3.88735 55.0994C3.04226 55.0994 2.76987 55.4475 2.76987 55.9696C2.76987 56.603 3.07019 56.9789 4.34132 56.9789H6.43659V54.1944H8.39916V56.9789H9.93568V58.935H8.39217ZM6.42961 58.935H4.33434C2.95845 58.935 2.46257 59.3109 2.46257 60.2159C2.46257 60.9677 2.77685 61.4202 3.88036 61.4202C4.85815 61.4202 5.67531 61.1208 6.42961 60.5152V58.935Z" fill="black"/>
<path d="M26.6345 61.2598V65.9725H24.5113V63.3691H18.4421V65.9725H16.3188V61.2598H17.3455C18.7633 59.603 18.7633 58.6911 18.7633 55.0504V55.0017H25.1539V61.2598H26.6345ZM23.0447 61.2598V57.1179H20.8935C20.8586 59.1506 20.663 59.979 19.6852 61.2598H23.0447Z" fill="black"/>
<path d="M36.0918 55.0017V63.3691H33.9686V58.8373H33.7102L30.3019 63.3691H28.1787V55.0017H30.3019V59.5195H30.5603L33.9686 55.0017H36.0918Z" fill="black"/>
<path d="M39.842 60.2846C39.842 61.0295 40.1842 61.2592 41.3715 61.2592C42.3004 61.2592 42.5798 61.0504 42.5798 60.6118C42.5798 60.0619 42.1537 59.9435 41.5671 59.9435H40.8477V58.3216H41.5671C42.042 58.3216 42.3633 58.2102 42.3633 57.7229C42.3633 57.2496 41.9861 57.1243 41.3226 57.1243C40.4566 57.1243 40.1143 57.2844 40.1143 57.8552H37.9911C37.9911 56.3585 39.0807 55.0081 41.3156 55.0081C43.3899 55.0081 44.4795 56.1915 44.4795 57.2844C44.4795 58.4678 43.8439 58.8924 42.915 59.0038V59.2613C44.0884 59.4215 44.696 59.9923 44.696 61.0156C44.696 62.185 43.6833 63.3754 41.3715 63.3754C38.8083 63.3754 37.7188 62.0249 37.7188 60.2846H39.842Z" fill="black"/>
<path d="M54.453 61.2598V63.376H51.2752V62.5616C50.8701 62.9862 50.2346 63.376 49.0053 63.376C47.0148 63.376 46.0859 62.1091 46.0859 60.6124C46.0859 59.1158 47.0148 57.8488 49.0053 57.8488C50.2276 57.8488 50.8631 58.2247 51.2752 58.6633V57.1179H47.0358V55.0017H53.3984V61.2598H54.453ZM51.2752 60.6124C51.2752 59.965 50.8492 59.7701 49.7457 59.7701C48.6352 59.7701 48.2161 59.965 48.2161 60.6124C48.2161 61.2598 48.6422 61.4547 49.7457 61.4547C50.8492 61.4547 51.2752 61.2598 51.2752 60.6124Z" fill="black"/>
<path d="M63.9097 55.001V63.3683H61.7865V58.8366H61.5281L58.1198 63.3683H55.9966V55.001H58.1198V59.5188H58.3782L61.7865 55.001H63.9097ZM57.603 50.9426H59.0696C59.0696 51.7571 59.4747 51.9172 60.0474 51.9172C60.6201 51.9172 61.0252 51.7571 61.0252 50.9426H62.4919C62.4919 52.8639 61.3535 53.379 60.0474 53.379C58.7414 53.379 57.603 52.8918 57.603 50.9426Z" fill="black"/>
<path d="M73.7642 55.0017V63.3691H71.641V60.3757H67.9044V63.3691H65.7812V55.0017H67.9044V58.2665H71.641V55.0017H73.7642Z" fill="black"/>
<path d="M83.5146 61.2598V63.376H80.3367V62.5616C79.9316 62.9862 79.2961 63.376 78.0669 63.376C76.0764 63.376 75.1475 62.1091 75.1475 60.6124C75.1475 59.1158 76.0764 57.8488 78.0669 57.8488C79.2891 57.8488 79.9247 58.2247 80.3367 58.6633V57.1179H76.0973V55.0017H82.4599V61.2598H83.5146ZM80.3367 60.6124C80.3367 59.965 79.9107 59.7701 78.8072 59.7701C77.7037 59.7701 77.2776 59.965 77.2776 60.6124C77.2776 61.2598 77.7037 61.4547 78.8072 61.4547C79.9107 61.4547 80.3367 61.2598 80.3367 60.6124Z" fill="black"/>
<path d="M10.7453 38.0718V46.4391H8.62215V42.7636H8.36373L6.79927 45.3671H4.51542L2.95096 42.7636H2.69254V46.4391H0.569336V38.0718H2.69254L5.52813 42.9933H5.78655L8.62215 38.0718H10.7453Z" fill="black"/>
<path d="M19.4271 43.056H14.2727C14.4543 43.8705 14.9921 44.3229 16.5217 44.3229C17.0106 44.3229 17.7439 44.3229 18.8684 44.0654V46.1468C17.5972 46.4391 16.9756 46.4391 16.354 46.4391C12.5895 46.4391 12.0518 43.7869 12.0518 42.2624C12.0518 39.9374 13.0645 38.0718 15.7674 38.0718C18.4074 38.0718 19.4201 39.8121 19.4201 42.0884V43.056H19.4271ZM14.1889 41.434H17.2899C17.2271 40.5082 16.7521 40.181 15.7394 40.181C14.7616 40.181 14.2867 40.5569 14.1889 41.434Z" fill="black"/>
<path d="M30.7058 44.3299V49.0426H28.5826V46.4391H22.5133V49.0426H20.3901V44.3299H21.4168C22.8346 42.6731 22.8346 41.7612 22.8346 38.1205V38.0718H29.2252V44.3299H30.7058ZM27.1229 44.3299V40.188H24.9718C24.9369 42.2207 24.7413 43.049 23.7635 44.3299H27.1229Z" fill="black"/>
<path d="M40.17 38.0718V46.4391H38.0468V41.9074H37.7883L34.38 46.4391H32.2568V38.0718H34.38V42.5896H34.6385L38.0468 38.0718H40.17Z" fill="black"/>
<path d="M49.9193 44.3299V46.4461H46.7415V45.6316C46.3364 46.0563 45.7009 46.4461 44.4716 46.4461C42.4811 46.4461 41.5522 45.1792 41.5522 43.6825C41.5522 42.1858 42.4811 40.9189 44.4716 40.9189C45.6939 40.9189 46.3295 41.2948 46.7415 41.7334V40.188H42.5021V38.0718H48.8647V44.3299H49.9193ZM46.7415 43.6755C46.7415 43.0281 46.3155 42.8332 45.212 42.8332C44.1015 42.8332 43.6824 43.0281 43.6824 43.6755C43.6824 44.3229 44.1085 44.5178 45.212 44.5178C46.3155 44.5248 46.7415 44.3299 46.7415 43.6755Z" fill="black"/>
<path d="M127.809 0.182731C127.39 -0.0609104 126.866 -0.0609104 126.447 0.182731L93.2997 19.2564H98.7543L125.762 3.71205V14.9196L107.603 21.6023V24.4982L125.762 17.8154V27.5541L72.8359 37.2928L74.554 36.6594V33.7635L71.7463 34.7938L74.554 33.1788V30.0393L56.6884 40.3209C56.2693 40.5646 56.0039 41.0101 56.0039 41.4974C56.0039 41.9847 56.2623 42.4302 56.6884 42.6738L126.447 82.819C126.656 82.9374 126.894 83 127.131 83C127.369 83 127.599 82.9374 127.816 82.819C128.235 82.5754 128.5 82.1299 128.5 81.6426V67.1355V54.3199V28.6818V15.8663V1.35916C128.493 0.87188 128.228 0.426373 127.809 0.182731ZM125.762 79.2897L71.7394 48.208L125.762 68.0891V79.2897ZM125.762 65.1933L72.8359 45.7159L125.762 55.4546V65.1933ZM125.762 52.691L64.9647 41.5044L125.762 30.3177V52.691Z" fill="black"/>
<path d="M10.3403 29.5037H8.21706V20.5655H4.6132C4.59923 25.0834 4.3059 29.5037 0.569336 29.5037V27.3875C2.32936 27.3875 2.47603 24.4151 2.47603 20.5586V18.4424H10.3333V29.5037H10.3403Z" fill="black"/>
<path d="M20.1737 27.3948V29.511H16.9959V28.6966C16.5908 29.1212 15.9553 29.511 14.726 29.511C12.7355 29.511 11.8066 28.2441 11.8066 26.7474C11.8066 25.2508 12.7355 23.9838 14.726 23.9838C15.9483 23.9838 16.5838 24.3598 16.9959 24.7983V23.2529H12.7565V21.1367H19.1191V27.3948H20.1737ZM16.9959 26.7405C16.9959 26.0931 16.5699 25.8982 15.4664 25.8982C14.3559 25.8982 13.9368 26.0931 13.9368 26.7405C13.9368 27.3879 14.3629 27.5828 15.4664 27.5828C16.5699 27.5897 16.9959 27.3948 16.9959 26.7405Z" fill="black"/>
<path d="M29.6023 25.5567C29.6023 27.9166 28.3452 29.5037 25.754 29.5037C22.4924 29.5037 21.5635 27.485 21.5635 25.0346V22.5982C21.5635 20.5795 22.2619 18.4563 25.9496 18.4563C26.8924 18.4563 27.514 18.4563 28.4639 18.1292V20.2105C27.7305 20.5656 26.9343 20.5656 25.9496 20.5656C23.8124 20.5656 23.6797 21.2478 23.6797 22.5495C24.0848 22.097 24.888 21.6237 25.9985 21.6237C28.3452 21.6237 29.6023 23.2178 29.6023 25.5567ZM27.4791 25.5567C27.4791 24.1436 26.9762 23.7329 25.5864 23.7329C24.1826 23.7329 23.6797 24.1367 23.6797 25.4732C23.6797 26.7401 24.1826 27.3945 25.5864 27.3945C26.9762 27.3945 27.4791 26.9838 27.4791 25.5567Z" fill="black"/>
<path d="M30.9092 25.3132C30.9092 22.9255 32.327 21.1365 34.967 21.1365C37.6071 21.1365 39.0249 22.9255 39.0249 25.3132C39.0249 27.7009 37.6071 29.5038 34.967 29.5038C32.327 29.5038 30.9092 27.7009 30.9092 25.3132ZM36.9086 25.3132C36.9086 23.6912 36.4058 23.2457 34.967 23.2457C33.5353 23.2457 33.0254 23.6843 33.0254 25.3132C33.0254 26.9351 33.5283 27.3946 34.967 27.3946C36.3988 27.3946 36.9086 26.9351 36.9086 25.3132Z" fill="black"/>
<path d="M49.1031 25.3134C49.1031 27.7011 48.0136 29.5041 45.4504 29.5041C44.4726 29.5041 43.6554 29.149 43.1037 28.5643V32.1076H40.9805V21.1367H43.1037V22.0626C43.6554 21.4917 44.4726 21.1367 45.4504 21.1367C48.0136 21.1367 49.1031 22.9257 49.1031 25.3134ZM46.9869 25.3134C46.9869 23.6567 46.4002 23.246 45.0453 23.246C43.6904 23.246 43.1037 23.6497 43.1037 25.3134C43.1037 26.9841 43.6904 27.3948 45.0453 27.3948C46.4002 27.3948 46.9869 26.9841 46.9869 25.3134Z" fill="black"/>
<path d="M58.6151 27.3948V29.511H55.4373V28.6966C55.0322 29.1212 54.3967 29.511 53.1675 29.511C51.177 29.511 50.248 28.2441 50.248 26.7474C50.248 25.2508 51.177 23.9838 53.1675 23.9838C54.3897 23.9838 55.0253 24.3598 55.4373 24.7983V23.2529H51.1979V21.1367H57.5605V27.3948H58.6151ZM55.4303 26.7405C55.4303 26.0931 55.0043 25.8982 53.9008 25.8982C52.7903 25.8982 52.3713 26.0931 52.3713 26.7405C52.3713 27.3879 52.7973 27.5828 53.9008 27.5828C55.0113 27.5897 55.4303 27.3948 55.4303 26.7405Z" fill="black"/>
<path d="M67.2267 23.2451H64.3073V29.5032H62.184V23.2451H59.2646V21.1289H67.2197V23.2451H67.2267Z" fill="black"/>
<path d="M67.876 25.3132C67.876 22.9255 69.2938 21.1365 71.9338 21.1365C74.5738 21.1365 75.9916 22.9255 75.9916 25.3132C75.9916 27.7009 74.5738 29.5038 71.9338 29.5038C69.2938 29.5038 67.876 27.7009 67.876 25.3132ZM73.8754 25.3132C73.8754 23.6912 73.3726 23.2457 71.9338 23.2457C70.4951 23.2457 69.9922 23.6843 69.9922 25.3132C69.9922 26.9351 70.4951 27.3946 71.9338 27.3946C73.3726 27.3946 73.8754 26.9351 73.8754 25.3132Z" fill="black"/>
<path d="M86.0768 25.3132C86.0768 27.7009 84.9872 29.5038 82.424 29.5038C81.4462 29.5038 80.6291 29.1488 80.0773 28.5641V32.1073H77.9541V21.1365H80.0773V22.0623C80.6291 21.4915 81.4462 21.1365 82.424 21.1365C84.9802 21.1365 86.0768 22.9255 86.0768 25.3132ZM83.9536 25.3132C83.9536 23.6564 83.3669 23.2457 82.0119 23.2457C80.657 23.2457 80.0703 23.6495 80.0703 25.3132C80.0703 26.9839 80.657 27.3946 82.0119 27.3946C83.3669 27.3946 83.9536 26.9839 83.9536 25.3132Z" fill="black"/>
<path d="M95.3731 21.1367V29.5041H93.2499V24.9723H92.9915L89.5832 29.5041H87.46V21.1367H89.5832V25.6545H89.8416L93.2499 21.1367H95.3731Z" fill="black"/>
<path d="M104.243 21.1365V29.5038H102.12V26.8516H99.2004V29.5038H97.0771V26.1416H99.5077V25.884C97.8803 25.703 97.0771 25.4107 97.0771 23.6564C97.0771 21.8674 97.8734 21.1365 100.988 21.1365H104.243ZM102.12 23.2457H100.506C99.5146 23.2457 99.2004 23.3293 99.2004 23.9766C99.2004 24.5962 99.5077 24.7424 100.506 24.7424H102.12V23.2457Z" fill="black"/>
</svg>
