<?xml version="1.0" encoding="UTF-8"?>
<svg id="Layer_2" data-name="Layer 2" xmlns="http://www.w3.org/2000/svg" viewBox="0 0 451.39 145.46">
  <defs>
    <style>
      .cls-1 {
        fill: #fff;
      }

      .cls-2 {
        fill: #dedc00;
      }
    </style>
  </defs>
  <g id="Layer_1-2" data-name="Layer 1">
    <g>
      <path class="cls-2" d="M246.89,95.26h-5.74l47.4,46.19h-21.8s-29.21-46.19-29.21-46.19h-4.73l29.2,46.18h-48.33l8.52-62.95,1.97,3.11h8.7l-8.94-8.71L294.86,3.43c.58-.57.76-1.44.46-2.19-.31-.75-1.04-1.24-1.85-1.24h-144.79c-.81,0-1.54.49-1.85,1.25-.31.75-.13,1.62.46,2.19l70.93,69.23-70.94,69.35c-.58.57-.76,1.43-.45,2.19s1.04,1.25,1.85,1.25h144.79c.81,0,1.55-.49,1.85-1.25.3-.77.12-1.64-.46-2.2l-47.97-46.75ZM288.56,3.99l-60.32,59.08,29.34-59.08h30.98ZM253.11,3.99l-28.85,58.08,5.82-58.08h23.03ZM153.59,3.99h10.16l35.79,44.85L153.59,3.99ZM168.87,3.99h14.72l26.65,51.85L168.87,3.99ZM188.08,3.99h16.72l11.41,54.73L188.08,3.99ZM208.88,3.99h17.18l-5.57,55.65-11.61-55.65ZM153.58,141.44l56.89-55.61-34.65,55.61h-22.24ZM180.53,141.44l37.19-59.69-8.08,59.69h-29.11Z"/>
      <path class="cls-1" d="M183.3,106.79v-10.58c1.76,1.87,4.13,3.2,6.94,3.8l19.41-18.97c-.26-10.1-5.08-17.57-16.03-17.57-4.3,0-7.94,1.49-10.32,3.56v-3.56h-9.32v48.37h4.16l5.16-5.05ZM191.83,72.78c5.95,0,8.53,1.79,8.53,9.1s-2.58,9.17-8.53,9.17-8.53-1.79-8.53-9.17,2.58-9.1,8.53-9.1ZM248,91.05v-27.59h-27.95v9.31h18.63v6.81c-1.79-1.94-4.59-3.58-9.96-3.58-8.74,0-12.83,5.59-12.83,12.18s4.09,12.18,12.83,12.18c2.87,0,4.98-.5,6.62-1.24.3-.14.59-.28.86-.43.04-.02.08-.04.12-.07.27-.15.52-.31.76-.48.04-.03.08-.06.12-.09.23-.16.44-.33.64-.5.04-.04.08-.07.12-.11.21-.18.41-.37.6-.56l2.19,3.47h11.9v-9.32h-4.65v.02ZM231.95,91.91c-4.87,0-6.74-.86-6.74-3.73s1.86-3.73,6.74-3.73,6.74.86,6.74,3.73-1.86,3.73-6.74,3.73ZM42.92,100.37h-9.32v-39.41h-15.83c-.07,19.92-1.36,39.41-17.77,39.41v-9.32c7.74,0,8.38-13.11,8.38-30.1v-9.32h34.54v48.74h0ZM87.66,91.05v9.32h-13.97v-3.58c-1.79,1.86-4.59,3.58-9.96,3.58-8.74,0-12.83-5.59-12.83-12.18s4.09-12.18,12.83-12.18c5.37,0,8.17,1.65,9.96,3.58v-6.81h-18.63v-9.32h27.95v27.59h4.65ZM73.69,88.18c0-2.87-1.86-3.73-6.74-3.73s-6.74.86-6.74,3.73,1.86,3.73,6.74,3.73c4.87,0,6.74-.86,6.74-3.73ZM128.33,82.95c0,10.39-5.52,17.41-16.91,17.41-14.33,0-18.42-8.89-18.42-19.71v-10.75c0-8.89,3.08-18.27,19.28-18.27,4.16,0,6.88,0,11.03-1.43v9.17c-3.22,1.58-6.74,1.58-11.03,1.58-9.39,0-9.96,3.01-9.96,8.74,1.79-2.01,5.3-4.08,10.17-4.08,10.32,0,15.84,7.03,15.84,17.34ZM119.01,82.95c0-6.23-2.22-8.03-8.31-8.03s-8.38,1.79-8.38,7.67,2.22,8.46,8.38,8.46,8.31-1.79,8.31-8.1ZM133.39,81.88c0-10.53,6.23-18.42,17.84-18.42s17.84,7.88,17.84,18.42-6.23,18.49-17.84,18.49-17.84-7.96-17.84-18.49ZM159.76,81.88c0-7.17-2.22-9.1-8.53-9.1s-8.53,1.93-8.53,9.1,2.22,9.17,8.53,9.17,8.53-2.01,8.53-9.17ZM369.79,81.88c0,10.53-4.8,18.49-16.05,18.49-4.3,0-7.88-1.58-10.32-4.16v15.62h-9.32v-48.37h9.32v4.08c2.44-2.51,6.02-4.08,10.32-4.08,11.25,0,16.05,7.89,16.05,18.42ZM360.47,81.88c0-7.31-2.58-9.1-8.53-9.1s-8.53,1.79-8.53,9.1,2.58,9.17,8.53,9.17,8.53-1.79,8.53-9.17ZM411.41,63.46v36.9h-9.32v-19.99h-1.15l-14.98,19.99h-9.32v-36.9h9.32v19.92h1.15l14.98-19.92h9.32ZM437.13,63.46c-13.69,0-17.2,3.22-17.2,11.11,0,6.22,2.28,8.27,6.89,9.25l-6.89,1.71v14.83h9.32v-11.68h12.83v11.68h9.31v-36.9h-14.26ZM442.08,79.37h-7.09c-4.37,0-5.73-.65-5.73-3.37,0-2.87,1.36-3.22,5.73-3.22h7.09v6.59ZM290.45,72.78h-12.83v27.59h-9.31v-27.59h-12.83v-9.32h34.97v9.32h0ZM292.67,81.88c0-10.53,6.23-18.42,17.84-18.42s17.84,7.88,17.84,18.42-6.23,18.49-17.84,18.49-17.84-7.96-17.84-18.49ZM319.04,81.88c0-7.17-2.22-9.1-8.53-9.1s-8.53,1.93-8.53,9.1,2.22,9.17,8.53,9.17,8.53-2.01,8.53-9.17Z"/>
    </g>
  </g>
</svg>