<?xml version="1.0" encoding="UTF-8"?>
<svg id="Layer_2" data-name="Layer 2" xmlns="http://www.w3.org/2000/svg" viewBox="0 0 451.3 145.3">
  <g id="Layer_1-2" data-name="Layer 1">
    <g>
      <path d="M246.9,95.3h-5.7l47.4,46.2h-21.8l-29.2-46.2h-4.7l29.2,46.2h-48.3l8.5-63,2,3.1h8.7l-8.9-8.7L295,3.4c.6-.6.8-1.4.5-2.2-.3-.8-1-1.2-1.8-1.2h-144.8c-.8,0-1.5.5-1.8,1.2-.3.8-.1,1.6.5,2.2l70.9,69.2-70.9,69.3c-.6.6-.8,1.4-.5,2.2s1,1.2,1.8,1.2h144.8c.8,0,1.5-.5,1.9-1.2.3-.8.1-1.6-.5-2.2l-48-46.8-.2.2ZM288.6,4.1l-60.3,59.1,29.3-59.1h31ZM253.1,4.1l-28.8,58.1,5.8-58.1h23ZM153.6,4.1h10.2l35.8,44.9L153.6,4.1ZM168.9,4.1h14.7l26.6,51.9L168.8,4.1h.1ZM188.1,4.1h16.7l11.4,54.7-28.1-54.7ZM208.9,4.1h17.2l-5.6,55.7-11.6-55.7ZM153.6,141.5l56.9-55.6-34.7,55.6h-22.2,0ZM180.5,141.5l37.2-59.7-8.1,59.7h-29.1Z"/>
      <path d="M183.3,106.9v-10.6c1.8,1.9,4.1,3.2,6.9,3.8l19.4-19c-.3-10.1-5.1-17.6-16-17.6s-7.9,1.5-10.3,3.6v-3.6h-9.3v48.4h4.2l5.2-5h-.1ZM191.8,72.8c6,0,8.5,1.8,8.5,9.1s-2.6,9.2-8.5,9.2-8.5-1.8-8.5-9.2,2.6-9.1,8.5-9.1ZM248,91.1v-27.6h-28v9.3h18.6v6.8c-1.8-1.9-4.6-3.6-10-3.6-8.7,0-12.8,5.6-12.8,12.2s4.1,12.2,12.8,12.2,5-.5,6.6-1.2c.3-.1.6-.3.9-.4h.1c.3-.1.5-.3.8-.5h.1c.2-.2.4-.3.6-.5l.1-.1.6-.6,2.2,3.5h11.9v-9.3h-4.6l.1-.2ZM232,92c-4.9,0-6.7-.9-6.7-3.7s1.9-3.7,6.7-3.7,6.7.9,6.7,3.7-1.9,3.7-6.7,3.7ZM42.9,100.4h-9.3v-39.4h-15.8c0,19.9-1.4,39.4-17.8,39.4v-9.3c7.7,0,8.4-13.1,8.4-30.1v-9.3h34.5v48.7h0ZM87.7,91.1v9.3h-14v-3.6c-1.8,1.9-4.6,3.6-10,3.6-8.7,0-12.8-5.6-12.8-12.2s4.1-12.2,12.8-12.2,8.2,1.6,10,3.6v-6.8h-18.6v-9.3h28v27.6h4.6ZM73.7,88.2c0-2.9-1.9-3.7-6.7-3.7s-6.7.9-6.7,3.7,1.9,3.7,6.7,3.7,6.7-.9,6.7-3.7ZM128.3,83c0,10.4-5.5,17.4-16.9,17.4s-18.4-8.9-18.4-19.7v-10.8c0-8.9,3.1-18.3,19.3-18.3s6.9,0,11-1.4v9.2c-3.2,1.6-6.7,1.6-11,1.6-9.4,0-10,3-10,8.7,1.8-2,5.3-4.1,10.2-4.1,10.3,0,15.8,7,15.8,17.3v.1ZM119,83c0-6.2-2.2-8-8.3-8s-8.4,1.8-8.4,7.7,2.2,8.5,8.4,8.5,8.3-1.8,8.3-8.1v-.1ZM133.4,81.9c0-10.5,6.2-18.4,17.8-18.4s17.8,7.9,17.8,18.4-6.2,18.5-17.8,18.5-17.8-8-17.8-18.5ZM159.8,81.9c0-7.2-2.2-9.1-8.5-9.1s-8.5,1.9-8.5,9.1,2.2,9.2,8.5,9.2,8.5-2,8.5-9.2ZM369.8,81.9c0,10.5-4.8,18.5-16,18.5s-7.9-1.6-10.3-4.2v15.6h-9.3v-48.4h9.3v4.1c2.4-2.5,6-4.1,10.3-4.1,11.2,0,16,7.9,16,18.4v.1ZM360.5,81.9c0-7.3-2.6-9.1-8.5-9.1s-8.5,1.8-8.5,9.1,2.6,9.2,8.5,9.2,8.5-1.8,8.5-9.2ZM411.4,63.5v36.9h-9.3v-20h-1.2l-15,20h-9.3v-36.9h9.3v19.9h1.2l15-19.9h9.3ZM437.1,63.5c-13.7,0-17.2,3.2-17.2,11.1s2.3,8.3,6.9,9.2l-6.9,1.7v14.8h9.3v-11.7h12.8v11.7h9.3v-36.9h-14.3l.1.1ZM442.1,79.4h-7.1c-4.4,0-5.7-.6-5.7-3.4s1.4-3.2,5.7-3.2h7.1v6.6ZM290.5,72.8h-12.8v27.6h-9.3v-27.6h-12.8v-9.3h35v9.3h-.1ZM292.7,81.9c0-10.5,6.2-18.4,17.8-18.4s17.8,7.9,17.8,18.4-6.2,18.5-17.8,18.5-17.8-8-17.8-18.5ZM319,81.9c0-7.2-2.2-9.1-8.5-9.1s-8.5,1.9-8.5,9.1,2.2,9.2,8.5,9.2,8.5-2,8.5-9.2Z"/>
    </g>
  </g>
</svg>