<?xml version="1.0" encoding="UTF-8"?>
<svg id="Layer_1" xmlns="http://www.w3.org/2000/svg" version="1.1" viewBox="0 0 119 138">
  <!-- Generator: Adobe Illustrator 29.8.2, SVG Export Plug-In . SVG Version: 2.1.1 Build 3)  -->
  <defs>
    <style>
      .st0 {
        fill: #CBFF00;
      }
    </style>
  </defs>
  <path class="st0" d="M1.9,57.2c1.4-4.4,4.3-8.1,7.1-11.8,1.7-2.2,3.4-4.4,6-5.5,2.4-1,5.8-1.1,6.9-3.5.4-.8.4-1.7.4-2.6.1-7.5.2-15.1.3-22.6,0-2.6,0-5.3,1.3-7.6,1.2-2.3,3.8-4.1,6.3-3.5,1.4.4,2.5,1.4,3.5,2.4,4.2,4.2,7.7,9.2,10.4,14.5,1.4,2.8,2.7,5.9,5.4,7.5,1.5.9,3.3,1.2,4.7,2.2,2,1.3,3.2,3.6,5,5.1,1.7,1.5,4,2.2,6.2,2.6,6.2,1,12.7-.5,18.4-3.2,5.7-2.7,10.9-6.4,16.2-9.8,1.9-1.2,3.8-2.4,5.9-3,6-1.6,12.8,3.3,13.3,9.5,2.5-.7,4.7-2.5,5.7-4.8l.2.3c2.1,38.1,1.2,76.3-2.6,114.2-20.5-1.3-41.1-1.3-61.7-.8-12.7.3-25.6.8-37.8-2.3.7-8-2.8-15.8-6.9-22.8-4.1-6.9-9-13.5-11.6-21.2-1.7-4.9-2.3-10-3-15.1-.8-6.1-1.5-12.4.4-18.2h0ZM26.1,54.7c-.9-1.4-1.9-2.8-3.3-3.8-1.3-1.1-4.3-1.6-6-1.7h0c1.3,3.8,4.6,6.6,8,8.7.7.4,1.6.9,2.3.5h.2c0-1.4-.7-2.7-1.4-3.7h0ZM39.6,68.3c-.4-1.5-2.8-.9-2.4.6.2.8.4,1.5.4,2.3,0,.6.2,1.6,0,2.2-.2.6-.9.4-1.5.5-.6,0-1.2,0-1.7.3-1,.4-1.3,1.4-2.1,2-.6.4-1.4.8-2.1,1-.4-.9-.4-1.9-.6-2.8-.3-1.2-1.1-2-1.9-2.9-.4-.4-.9-.9-.8-1.5,0-.6.4-1.2.8-1.7.9-1.1,2-2,2.9-3,1.1-1.1-.6-2.8-1.7-1.7-2,2-5.7,4.7-4.2,8,.6,1.3,2,1.9,2.4,3.3.5,1.4.3,2.9,1.3,4.1.2.2.4.4.7.5.2.1.4.2.7.1,1.3-.2,2.6-.6,3.6-1.3.5-.3.9-.7,1.3-1.2.5-.7.9-.8,1.8-.9,1.7,0,3.1-.7,3.4-2.6.3-1.8,0-3.7-.5-5.5h0ZM56.6,59.4c-3,.3-5.9,1.4-8.7,2.6-.8.4-1.7.8-2.2,1.5v.2c1,.6,2.1.9,3.2.8,5.5-.4,11.4-1.2,16.4-3.3v-.2c-2.5-1.6-5.7-2-8.7-1.7h0ZM7.6,82.2c2,1.2,4.1,2,6.4,2.6,1.1.2,1.9.2,2.4,1.3.5,1.1.9,2.2,1.3,3.3.4,1.2,1.9,1.1,2.4,0,.5-1.2,1.2-3.2,2.8-3.3.8,0,1.6.5,2.3.8.8.4,1.7.8,2.5,1.2.9.4,1.8.9,2.7,1.3.4.2.7.3,1.1.5.2.1.5.2.7.3,0,0,0,0,.1,0,0,.3,0,.6,0,.8,0,.5,0,1,.1,1.4.1.8.3,1.6.5,2.4.3.9,1.3,1.2,2,.5,1.1-1,2.1-1.9,3.2-2.9,0,0,.3-.3.5-.4.1,0,.4,0,.4,0,.7,0,1.3.2,2,.3,2.7.3,5.4.7,8.1,1,2.7.4,5.5.7,8.2,1.2,2.1.3,4.9.9,5.8,3.2.6,1.4,2.9.8,2.4-.6-1-2.6-3.4-4-6.1-4.6-3-.7-6.2-1-9.3-1.4-3.2-.4-6.5-.8-9.7-1.3-1.4-.2-2.4-.5-3.6.5-.7.6-1.4,1.2-2,1.8,0-.5-.1-1.1-.1-1.6,0-1,0-1.9-1-2.5-1-.6-2.1-1-3.2-1.5-1.1-.5-2.2-1-3.2-1.5-1.9-.9-3.9-2.2-6-1.2-.9.4-1.6,1.1-2.2,1.9-.6-1.4-1.4-2.6-2.8-3.1-1.2-.4-2.5-.6-3.7-1-1.3-.4-2.5-1-3.7-1.7-1.4-.8-2.6,1.3-1.2,2.1h0Z"/>
</svg>