<svg width="119" height="138" viewBox="0 0 119 138" fill="none" xmlns="http://www.w3.org/2000/svg">
<path d="M1.94021 57.1725C3.3893 52.8067 6.24683 49.0653 9.05355 45.417C10.7201 43.2524 12.4984 40.9965 15.0206 39.9365C17.4676 38.9089 20.7722 38.8218 21.886 36.418C22.262 35.6052 22.2823 34.681 22.2945 33.7872C22.3982 26.2596 22.4998 18.7321 22.6034 11.2045C22.638 8.61424 22.6989 5.92062 23.8655 3.606C25.0321 1.29139 27.6559 -0.512469 30.172 0.132056C31.5642 0.488774 32.678 1.5042 33.6901 2.52369C37.9032 6.76579 41.4233 11.6889 44.0756 17.0417C45.4637 19.8428 46.7725 22.9438 49.4573 24.5531C50.943 25.4428 52.7152 25.7772 54.1704 26.7157C56.1702 28.0067 57.3226 30.2707 59.1355 31.8151C60.861 33.2866 63.1027 34.0304 65.3404 34.4054C71.5778 35.4512 78.0143 33.8581 83.7477 31.1949C89.481 28.5317 94.6555 24.8307 99.9437 21.371C101.797 20.1589 103.708 18.957 105.852 18.4017C111.868 16.8471 118.686 21.7135 119.15 27.8932C121.643 27.2426 123.808 25.4367 124.889 23.1019L125.044 23.3998C127.123 61.4511 126.245 99.6625 122.424 137.578C101.897 136.283 81.3047 136.285 60.7431 136.804C48.0692 137.124 35.192 137.619 22.9164 134.467C23.6278 126.441 20.1585 118.639 16.051 111.702C11.9436 104.764 7.0699 98.1566 4.49081 90.5216C2.84052 85.639 2.1841 80.4869 1.53577 75.3752C0.765495 69.3009 0.0155487 62.9854 1.94631 57.1745L1.94021 57.1725ZM26.0707 54.6592C25.148 53.2547 24.1216 51.8947 22.8168 50.8347C21.512 49.7746 18.4939 49.2051 16.8111 49.1828L16.8579 49.193C18.1525 52.9973 21.4592 55.7618 24.8899 57.8697C25.5971 58.3055 26.4589 58.7331 27.2251 58.4088L27.4425 58.269C27.4771 56.9637 26.7901 55.7537 26.0707 54.6613V54.6592ZM39.6267 68.3422C39.2182 66.8302 36.8646 67.4768 37.2752 68.9888C37.4805 69.7468 37.6471 70.5089 37.7223 71.2933C37.7833 71.9236 37.9459 72.8985 37.7528 73.5167C37.5536 74.1531 36.8606 73.9626 36.2895 73.9909C35.7062 74.0193 35.129 74.0902 34.5945 74.3355C33.621 74.7794 33.3364 75.7401 32.5296 76.3197C31.9646 76.7251 31.1516 77.1143 30.4179 77.2845C30.044 76.4191 30.0501 75.4219 29.7981 74.5017C29.4709 73.3099 28.7433 72.485 27.8917 71.6256C27.4466 71.1757 27.032 70.7602 27.0706 70.0873C27.1051 69.4631 27.5198 68.8895 27.9079 68.4294C28.7981 67.3754 29.8692 66.4451 30.8488 65.4743C31.9646 64.3697 30.2391 62.651 29.1233 63.7535C27.1112 65.7459 23.4692 68.4659 24.9651 71.7371C25.5443 73.0039 26.969 73.6869 27.408 75.0064C27.8775 76.417 27.7189 77.8966 28.6762 79.1411C28.853 79.3721 29.0806 79.5565 29.3326 79.6579C29.5115 79.7673 29.7412 79.8221 30.0257 79.7876C31.2898 79.6356 32.5804 79.1593 33.6596 78.4803C34.1921 78.1459 34.5925 77.773 34.9624 77.2683C35.505 76.5265 35.8342 76.4393 36.7569 76.415C38.4967 76.3684 39.8827 75.6793 40.149 73.8288C40.4091 72.027 40.0982 70.0853 39.6267 68.3443V68.3422ZM56.6458 59.4445C53.6176 59.7769 50.7153 60.8268 47.9127 62.0145C47.0815 62.3672 46.2035 62.7786 45.7482 63.5549L45.8742 63.7738C46.7644 64.4041 47.8497 64.694 48.939 64.623C54.4224 64.2663 60.298 63.413 65.3851 61.3416L65.4501 61.1552C62.8649 59.5479 59.6741 59.1101 56.6458 59.4425V59.4445ZM7.62071 82.236C9.60635 83.3913 11.7566 84.281 13.9983 84.8019C15.0694 85.0512 15.8498 85.0208 16.3661 86.089C16.8742 87.1409 17.2786 88.2516 17.6932 89.342C18.1301 90.4952 19.6077 90.4892 20.0447 89.342C20.5101 88.1178 21.2295 86.1031 22.8412 86.0788C23.6339 86.0667 24.4143 86.5551 25.1053 86.8855C25.9447 87.2868 26.782 87.6881 27.6214 88.0894C28.5197 88.5191 29.418 88.9488 30.3163 89.3785C30.676 89.5507 31.0358 89.723 31.3935 89.8953C31.6333 90.0108 31.8731 90.1243 32.113 90.2399C32.1556 90.2682 32.1882 90.2905 32.2166 90.3067C32.2349 90.5763 32.1678 90.9047 32.1719 91.1438C32.18 91.6262 32.2247 92.1045 32.2877 92.5849C32.3955 93.4159 32.5784 94.2185 32.8365 95.015C33.1251 95.9048 34.1819 96.1825 34.875 95.5521C35.9298 94.5894 36.9846 93.6287 38.0414 92.6659C38.0861 92.6254 38.3707 92.4004 38.5129 92.2606C38.645 92.2768 38.8808 92.2728 38.958 92.2829C39.6104 92.364 40.2608 92.4511 40.9132 92.5342C43.6162 92.8828 46.3193 93.2274 49.0203 93.5841C51.7478 93.9449 54.4793 94.2996 57.1946 94.7414C59.3245 95.088 62.1353 95.6758 63.0173 97.9519C63.5783 99.399 65.9359 98.7666 65.3688 97.3053C64.3526 94.6846 61.9707 93.2841 59.3164 92.6741C56.278 91.9768 53.1034 91.6951 50.0162 91.2837C46.7888 90.8519 43.5573 90.4425 40.3258 90.025C38.9113 89.8426 37.8849 89.5426 36.7488 90.552C36.068 91.158 35.3952 91.7721 34.7225 92.3903C34.6453 91.8633 34.6046 91.3303 34.6107 90.7851C34.6189 89.7838 34.5538 88.9001 33.6393 88.3063C32.6759 87.682 31.5052 87.2625 30.4687 86.7679C29.3916 86.2511 28.3124 85.7363 27.2352 85.2195C25.3451 84.3155 23.3168 83.069 21.199 84.0135C20.254 84.4351 19.5671 85.1161 19.0305 85.9167C18.4472 84.5384 17.6444 83.2737 16.2624 82.8238C15.045 82.4265 13.7605 82.2725 12.5411 81.8529C11.2526 81.4091 10.0311 80.8213 8.85438 80.1382C7.49471 79.3478 6.26714 81.4516 7.62274 82.238L7.62071 82.236Z" fill="#CBFF00"/>
</svg>
