<svg width="1052" height="754" viewBox="0 0 1052 754" fill="none" xmlns="http://www.w3.org/2000/svg">
<g clip-path="url(#clip0_2504_14)">
<path d="M1798.8 0C1803.15 1.22938e-05 1807.44 0.434723 1811.69 1.28809V752.695C1807.44 753.559 1803.14 754 1798.8 754C1758.97 754 1722.66 717.308 1695.26 657.041C1655.64 717.308 1603.17 754 1545.61 754C1471.67 754 1406.09 693.391 1365.41 600.044C1300.64 693.391 1196.25 754 1078.45 754C951.365 754 839.889 683.467 776.897 577.344C702.495 683.467 570.742 754 420.58 754C188.296 754 9.23431e-05 585.215 0 377C0 168.785 188.296 0.000182137 420.58 0C570.742 0 702.495 70.5325 776.897 176.655C839.847 70.5328 951.365 0 1078.45 0C1196.21 4.75173e-06 1300.64 60.6091 1365.41 153.956C1406.09 60.6092 1471.63 0.000107586 1545.61 0C1603.17 0 1655.64 36.6922 1695.26 96.959C1722.66 36.6922 1758.68 0 1798.8 0Z" fill="#D3D800"/>
</g>
<defs>
<clipPath id="clip0_2504_14">
<rect width="1052" height="754" fill="white"/>
</clipPath>
</defs>
</svg>
