<svg width="748" height="582" viewBox="0 0 748 582" fill="none" xmlns="http://www.w3.org/2000/svg">
<path d="M336.543 60.1572L421.447 12.165L447.657 81.0107L551.781 51.5693L542.511 122.396L655.676 114.35L611.842 180.247L722.946 194.386L648.83 248.908L747.021 283.859L649.878 321.625L725.534 373.959L614.883 391.293L660.598 455.901L547.248 451.118L558.555 521.679L453.626 495.219L429.41 564.822L343.159 519.296L285.791 581.103L226.665 520.975L141.762 568.967L115.551 500.091L11.4277 529.562L20.6963 458.706L0 460.177V129.31L15.96 129.983L4.65332 59.4531L109.582 85.8828L133.798 16.3096L220.049 61.8359L277.417 0L336.543 60.1572Z" fill="#D3D800"/>
</svg>
