<svg width="619" height="342" viewBox="0 0 619 342" fill="none" xmlns="http://www.w3.org/2000/svg">
<path d="M504.857 359L5.1427 359C3.41931 359 1.70477 358.962 -9.97875e-09 358.886L2.99209e-05 3.09487C9.40518 1.06741 19.1661 -8.59601e-06 29.1759 -9.4711e-06C75.6812 -1.35367e-05 116.804 23.0398 141.858 58.3415C166.911 23.0398 207.754 -2.50829e-05 254.54 -2.9173e-05C301.325 -3.32631e-05 342.688 23.3408 367.682 59.0239C392.675 23.3208 434.039 -4.48653e-05 480.824 -4.89554e-05C557.125 -5.56259e-05 619 62.0347 619 138.579C619 142.653 618.82 146.667 618.48 150.66L619 150.66L619 244.525C619 307.743 567.892 359 504.857 359Z" fill="#D3D800"/>
</svg>
