<svg width="885" height="490" viewBox="0 0 885 490" fill="none" xmlns="http://www.w3.org/2000/svg">
<path d="M438.571 -0.000435621L494.641 50.6282L575.363 10.0345L600.154 68.0395L699.105 43.0564L690.191 102.786L797.696 95.8275L755.958 151.455L861.472 163.204L790.986 209.287L884.203 238.604L791.87 270.594L863.654 314.601L758.522 329.386L801.846 383.788L694.184 379.93L704.816 439.403L605.186 417.256L582.077 475.976L500.219 437.725L445.63 489.923L389.561 439.32L308.838 479.914L284.047 421.883L185.097 446.892L194.011 387.137L86.5048 394.095L128.244 338.468L22.7291 326.719L93.2154 280.661L-0.00124369 251.345L92.332 219.354L20.5475 175.322L125.68 160.537L82.3554 106.135L190.017 109.993L179.386 50.5454L279.015 72.667L302.124 13.9718L383.983 52.2228L438.571 -0.000435621Z" fill="#D3D800"/>
</svg>
