<svg width="1051" height="766" viewBox="0 0 1051 766" fill="none" xmlns="http://www.w3.org/2000/svg">
<path d="M674.143 30.9914L783.088 85.3499L908.727 0L966.69 75.3878L1127.51 6.48618L1128.83 95.5607L1309.11 49.8026L1253.67 143.872L1435.72 125.746L1328.94 215.608L1494.97 226.896L1347.29 303.701L1481.04 343.291L1306.94 399.544L1395.32 463.578L1211.81 493.794L1246.18 576.004L1071.24 577.183L1048.23 669.521L898.982 641.577L820.822 734.972L711.885 680.65L586.246 766L528.275 690.576L367.459 759.514L366.134 670.403L185.856 716.161L241.295 622.092L59.2472 640.217L166.037 550.392L0 539.104L147.682 462.299L13.9202 422.672L188.024 366.419L99.6428 302.386L283.16 272.169L248.796 189.996L423.723 188.78L446.747 96.4792L595.991 124.423L674.143 30.9914Z" fill="#D3D800"/>
</svg>
