<svg width="30" height="24" viewBox="0 0 30 24" fill="none" xmlns="http://www.w3.org/2000/svg">
<path fill-rule="evenodd" clip-rule="evenodd" d="M1.66667 0C0.7462 0 0 0.7462 0 1.66667C0 2.58713 0.7462 3.33333 1.66667 3.33333H28.3333C29.2538 3.33333 30 2.58713 30 1.66667C30 0.7462 29.2538 0 28.3333 0H1.66667ZM6.66667 11.6667C6.66667 10.7462 7.41287 10 8.33333 10H28.3333C29.2538 10 30 10.7462 30 11.6667C30 12.5872 29.2538 13.3333 28.3333 13.3333H8.33333C7.41287 13.3333 6.66667 12.5872 6.66667 11.6667ZM16.6667 21.6667C16.6667 20.7462 17.4128 20 18.3333 20H28.3333C29.2538 20 30 20.7462 30 21.6667C30 22.5872 29.2538 23.3333 28.3333 23.3333H18.3333C17.4128 23.3333 16.6667 22.5872 16.6667 21.6667Z" fill="black"/>
</svg>
