<svg width="30" height="22" viewBox="0 0 30 22" fill="none" xmlns="http://www.w3.org/2000/svg">
<path d="M0 2C0 0.895431 0.895431 0 2 0H28C29.1046 0 30 0.895431 30 2C30 3.10457 29.1046 4 28 4H2C0.89543 4 0 3.10457 0 2Z" fill="black"/>
<path d="M6 11C6 9.89543 6.89543 9 8 9H28C29.1046 9 30 9.89543 30 11C30 12.1046 29.1046 13 28 13H8C6.89543 13 6 12.1046 6 11Z" fill="black"/>
<path d="M16 20C16 18.8954 16.8954 18 18 18H28C29.1046 18 30 18.8954 30 20C30 21.1046 29.1046 22 28 22H18C16.8954 22 16 21.1046 16 20Z" fill="black"/>
</svg>
