<svg width="24" height="24" viewBox="0 0 24 24" fill="none" xmlns="http://www.w3.org/2000/svg">
<path d="M1.41416 1.41421C2.1952 0.633165 3.46153 0.633165 4.24258 1.41421L22.6274 19.799C23.4084 20.58 23.4084 21.8464 22.6274 22.6274C21.8463 23.4085 20.58 23.4085 19.7989 22.6274L1.41416 4.24264C0.633107 3.46159 0.633107 2.19526 1.41416 1.41421Z" fill="white"/>
<path d="M3.5148 20.4853C2.73375 19.7042 2.73375 18.4379 3.5148 17.6569L17.6569 3.51473C18.438 2.73368 19.7043 2.73368 20.4854 3.51473C21.2664 4.29578 21.2664 5.56211 20.4854 6.34315L6.34323 20.4853C5.56218 21.2663 4.29585 21.2663 3.5148 20.4853Z" fill="white"/>
</svg>
