<?xml version="1.0" encoding="UTF-8"?>
<svg id="Layer_1" xmlns="http://www.w3.org/2000/svg" version="1.1" viewBox="0 0 30 22">
  <!-- Generator: Adobe Illustrator 29.8.2, SVG Export Plug-In . SVG Version: 2.1.1 Build 3)  -->
  <defs>
    <style>
      .st0 {
        fill: #D3D800;
      }
    </style>
  </defs>
  <path class="st0" d="M0,2C0,.9.9,0,2,0h26C29.1,0,30,.9,30,2s-.9,2-2,2H2c-1.1,0-2-.9-2-2Z"/>
  <path class="st0" d="M6,11c0-1.1.9-2,2-2h20c1.1,0,2,.9,2,2s-.9,2-2,2H8c-1.1,0-2-.9-2-2Z"/>
  <path class="st0" d="M16,20c0-1.1.9-2,2-2h10c1.1,0,2,.9,2,2s-.9,2-2,2h-10c-1.1,0-2-.9-2-2Z"/>
</svg>