<svg width="505" height="269" viewBox="0 0 505 269" fill="none" xmlns="http://www.w3.org/2000/svg">
<path d="M42.9206 0H419.079C466.529 0 505 38.4071 505 85.7768V156.11H504.608C504.864 159.087 505 162.11 505 165.163C505 222.502 458.44 269 400.988 269C365.982 269 335.027 251.736 316.167 225.284C297.308 251.736 266.564 269 231.346 269C196.129 269 164.993 251.511 146.179 224.773C127.365 251.526 96.2294 269 61.0116 269C38.2205 269 17.1395 261.681 0 249.268V11.4542C12.6291 4.16907 27.2876 0 42.9206 0Z" fill="#D3D800"/>
</svg>
