<?xml version="1.0" encoding="UTF-8"?>
<svg id="Layer_1" xmlns="http://www.w3.org/2000/svg" version="1.1" viewBox="0 0 896 1090">
  <!-- Generator: Adobe Illustrator 29.8.2, SVG Export Plug-In . SVG Version: 2.1.1 Build 3)  -->
  <defs>
    <style>
      .st0 {
        fill: #d3d800;
      }
    </style>
  </defs>
  <path class="st0" d="M437.4,59.6c55.6-3.9,90.5,19.4,98.8,75.5,4.6,31.3,2.7,76.8-16,103.5-18.8,26.9-51.7,33.8-82.9,31.2-57.3-4.8-76.5-46-78.1-98.4-1.7-55.5,15-107.4,78.2-111.8ZM493.9,201.1c3.6-15.3,4.2-32,3.5-47.6-.7-16.4-3.3-38.4-18.8-47.5-14.3-8.4-38.6-7.4-54-2.6l69.3,97.7ZM404.1,128.8c-.5,0-.7-.3-1,.3-1,1.9-2.2,12.6-2.5,15.4-1.8,19.6-2.5,61.1,13,75.3,13.6,12.5,42.2,11.5,58.8,6.5l-68.3-97.5ZM281.5,59.5v101.2h-61.8v-85.8h-40.4v126.6h102.2v68.1c0,0,.7.7.7.7h39.4c0,0,.7-.7.7-.7V59.5h-40.9ZM676.4,59.5v101.2h-61.8v-85c0,0-.7-.7-.7-.7h-40.1v126.6h102.7v68.1c0,0,.7.7.7.7h39.6V59.5h-40.4Z"/>
  <path class="st0" d="M28.2,1010.3l113.1-194.2c-30.9-20.2-60.2-43.1-86.2-69.3,22.8-22.2,46.4-43.3,72.1-62,40.5-29.4,85-52.9,131.5-71.4,60-102.9,119.1-206.4,179.5-309.1,6.6-6,16.2-5.4,21.6,1.9l173.2,299.2c50.1,17.3,97.4,42.3,140.1,73.5,25.3,18.5,48.5,39.4,70.9,61.2.1.2.2.5.2.7,0,.8-7.5,8-8.7,9.2-24.6,23.7-52,44.8-80.3,63.8l-.7,1.2,113.1,195.3v13.5c-1.8,3.6-5.2,5.7-9,7H37.7c-2-1.1-4.2-1.8-5.9-3.3-1.5-1.3-1.9-3.2-3.5-3.7v-13.5ZM482.4,577l-34.4-185-33.9,186c21.5-1.1,43-2.3,64.6-1.5s2.4.6,3.7.5ZM594.1,593.5l-75.8-130.6.5,2.3,44.9,121.1,30.5,7.3ZM331.2,591.4c15.3-42.8,32-85.1,47-128l-79.3,136.4,32.3-8.3ZM363.2,585c7-1.8,14.4-2.2,21.4-3.7l.4-.6,19.5-106.9-41.4,111.2ZM531.8,581l-39.4-106.7,19,103.9,1.2.8,19.2,2ZM359.7,869.2c50.8,8.9,103.5,10.6,154.8,4.4,7.4-.9,14.7-2.1,22-3.4l-48.1-261.6c-14.3-.6-28.8-1.1-43.2-.7-7.3.2-14.6,1-21.9,1.5-2.3.2-14.6.4-15.5,1.5l-48.1,258.3ZM544.6,615.1l-27.3-3.9,46.9,253.5c22.4-4.4,44.5-11.1,65.8-19.2l-85.4-230.4ZM378.7,614.4c-9.6,1.3-19.1,3-28.5,5.3l-83.2,225c21.1,7.4,42.5,13.7,64.2,18.9l1.4-.4,46.1-248.8ZM616.9,632.5c-8.8-2.8-17.7-5.6-26.7-8s-8.9-2.7-12.3-3.1c-.8,0-.8,0-.7.7l79,213.1c16.6-7.4,33.1-15.3,49-24.3,1.5-.8,11-6.2,11-6.8l-99.2-171.6ZM317.4,627.9c-14.5,3.5-28.8,8.3-42.7,13.6l-93.8,162.2.6,1.2c16.7,9.3,33.7,18.4,51.3,26s7.9,3.5,8.3,3.2l76.3-206.2ZM739.7,789.4c21.6-14.5,42.2-30.5,61.3-48.1-41.8-38.7-90.1-70.7-142.6-93l81.3,141.1ZM232.1,659.3c-48.3,21.7-92.8,51.7-132.1,87,17.6,15.9,36.7,30.1,56.5,43.1l75.6-130.1ZM718.2,1003.3h113.2l-100.5-174c-14.7,8.4-29.6,16.6-44.9,23.9s-13.6,5.8-20.1,9.3l52.3,140.9ZM65.6,1003.3h112.4l52.5-140.4c-9.1-4.6-18.7-8.4-28-12.8-6.1-2.9-12.3-6-18.3-9.1-6.4-3.3-12.6-7.3-19.1-10.3l-99.5,172.6ZM208.2,1003.3h98l20.7-110.7c-23.8-4.8-47.1-11.9-70-19.9l-48.7,130.6ZM590.1,1003.3h98.2l-48.1-130.7c-23.2,7.9-46.5,15.3-70.5,20.5l20.4,110.2ZM335.3,1003.3h226.4l-19.5-104.7c-55.1,9.4-111.3,10-166.7,2.9-6.9-.9-13.7-2-20.5-3.3l-19.7,105.1ZM408,732.7c-10.9,37.5,28.7,69.4,63,51,42-22.5,23-87.2-27-81.9-16.4,1.7-31.4,15.2-35.9,30.9Z"/>
</svg>