<svg width="1265" height="1067" viewBox="0 0 1265 1067" fill="none" xmlns="http://www.w3.org/2000/svg">
<path d="M632.5 0L662.954 43.3527L698.614 2.92255L723.529 48.7228L764.004 11.6583L783.107 59.4043L827.953 26.1114L841.034 75.2801L889.761 46.1235L896.677 96.1762L948.75 71.4754L949.425 121.864L1004.27 101.889L998.702 152.061L1055.73 137.032L1043.97 186.438L1102.54 176.519L1084.72 224.617L1144.2 219.917L1120.52 266.18L1180.26 266.75L1150.98 310.672L1210.32 316.506L1175.75 357.606L1234.04 368.639L1194.57 406.466L1251.18 422.579L1207.24 456.719L1261.54 477.734L1213.6 507.812L1265 533.5L1213.6 559.188L1261.54 589.266L1207.24 610.281L1251.18 644.421L1194.57 660.534L1234.04 698.361L1175.75 709.394L1210.32 750.494L1150.98 756.328L1180.26 800.25L1120.52 800.82L1144.2 847.083L1084.72 842.383L1102.54 890.481L1043.97 880.562L1055.73 929.968L998.702 914.939L1004.27 965.111L949.425 945.136L948.75 995.525L896.677 970.824L889.761 1020.88L841.034 991.72L827.953 1040.89L783.107 1007.6L764.004 1055.34L723.529 1018.28L698.614 1064.08L662.954 1023.65L632.5 1067L602.046 1023.65L566.386 1064.08L541.471 1018.28L500.996 1055.34L481.893 1007.6L437.047 1040.89L423.966 991.72L375.239 1020.88L368.323 970.824L316.25 995.525L315.575 945.136L260.726 965.111L266.298 914.939L209.275 929.968L221.035 880.562L162.461 890.481L180.279 842.383L120.797 847.083L144.478 800.82L84.739 800.25L114.023 756.328L54.6825 750.494L89.2496 709.394L30.9567 698.361L70.4278 660.534L13.8217 644.421L57.7642 610.281L3.4649 589.266L51.3975 559.188L0 533.5L51.3975 507.812L3.4649 477.734L57.7642 456.719L13.8217 422.579L70.4278 406.466L30.9567 368.639L89.2496 357.606L54.6825 316.506L114.023 310.672L84.739 266.75L144.478 266.18L120.797 219.917L180.279 224.617L162.461 176.519L221.035 186.438L209.275 137.032L266.298 152.061L260.726 101.889L315.575 121.864L316.25 71.4754L368.323 96.1762L375.239 46.1235L423.966 75.2801L437.047 26.1114L481.893 59.4043L500.996 11.6583L541.471 48.7228L566.386 2.92255L602.046 43.3527L632.5 0Z" fill="#D3D800"/>
</svg>
