<svg width="1920" height="398" viewBox="0 0 1920 398" fill="none" xmlns="http://www.w3.org/2000/svg">
<path d="M1863.49 11.4158C1872.04 -3.73326 1890.9 -3.82895 1899.54 11.2723L1908.33 26.5887C1917 41.7376 1935.95 41.594 1944.46 26.3015L1952.44 11.9656C1961 -3.37461 1980.02 -3.47001 1988.66 11.7986L1996.95 26.4451C2005.57 41.6657 2024.53 41.6418 2033.11 26.3973L2041.36 11.7508C2049.95 -3.51796 2068.94 -3.51796 2077.54 11.7508L2085.89 26.5642C2094.44 41.7612 2113.34 41.8329 2121.98 26.7078L2130.7 11.4392V11.4637C2134.86 4.18828 2141.4 0.430521 2148 0.191199V397.131C2141.4 396.891 2134.86 393.133 2130.7 385.858L2121.98 370.59C2113.32 355.465 2094.44 355.536 2085.89 370.733L2077.54 385.547C2068.94 400.815 2049.95 400.815 2041.36 385.547L2033.11 370.9C2024.51 355.656 2005.57 355.632 1996.95 370.852L1988.66 385.499C1980.02 400.744 1960.98 400.672 1952.44 385.332L1944.46 370.996C1935.95 355.704 1917 355.56 1908.33 370.709L1899.54 386.026C1890.9 401.103 1872.04 401.031 1863.49 385.883L1855.08 370.996C1846.46 355.751 1827.43 355.8 1818.88 371.093L1811.25 384.733C1802.79 399.834 1784.1 400.122 1775.31 385.284L1766.14 369.776C1757.36 354.938 1738.66 355.225 1730.21 370.326L1721.65 385.619C1713.14 400.864 1694.2 400.983 1685.54 385.835L1676.82 370.565C1668.16 355.44 1649.28 355.512 1640.72 370.709L1632.37 385.523C1623.77 400.792 1604.79 400.792 1596.19 385.523L1587.94 370.877C1579.35 355.632 1560.4 355.608 1551.79 370.829L1543.5 385.475C1534.86 400.72 1515.81 400.648 1507.28 385.307L1499.3 370.972C1490.78 355.68 1471.84 355.536 1463.16 370.685L1454.38 386.026C1449.15 395.168 1440.17 398.734 1432 396.771V397.131C1425.4 396.891 1418.86 393.133 1414.7 385.858L1405.98 370.59C1397.32 355.465 1378.44 355.536 1369.89 370.733L1361.54 385.547C1352.94 400.815 1333.95 400.815 1325.36 385.547L1317.11 370.9C1308.51 355.656 1289.57 355.632 1280.95 370.852L1272.66 385.499C1264.02 400.744 1244.98 400.672 1236.44 385.332L1228.46 370.996C1219.95 355.704 1201 355.56 1192.33 370.709L1183.54 386.026C1174.9 401.103 1156.04 401.031 1147.49 385.883L1139.08 370.996C1130.46 355.751 1111.43 355.8 1102.88 371.093L1095.25 384.733C1086.79 399.834 1068.1 400.122 1059.31 385.284L1050.14 369.776C1041.36 354.938 1022.66 355.225 1014.21 370.326L1005.65 385.619C997.139 400.864 978.196 400.983 969.537 385.835L960.816 370.565C952.157 355.44 933.276 355.512 924.72 370.709L916.37 385.523C907.773 400.792 888.789 400.792 880.191 385.523L871.943 370.877C863.346 355.632 844.404 355.608 835.786 370.829L827.497 385.475C818.859 400.72 799.813 400.648 791.277 385.307L783.297 370.972C774.782 355.68 755.84 355.536 747.16 370.685L738.378 386.026C733.154 395.168 724.165 398.734 716 396.771V397.131C709.398 396.891 702.858 393.133 698.703 385.858L689.981 370.59C681.322 355.465 662.442 355.536 653.886 370.733L645.535 385.547C636.938 400.815 617.954 400.815 609.356 385.547L601.109 370.9C592.512 355.656 573.569 355.632 564.951 370.852L556.663 385.499C548.025 400.744 528.979 400.672 520.443 385.332L512.463 370.996C503.948 355.704 485.005 355.56 476.325 370.709L467.543 386.026C458.905 401.103 440.044 401.031 431.488 385.883L423.076 370.996C414.458 355.751 395.433 355.8 386.877 371.093L379.246 384.733C370.793 399.834 352.097 400.122 343.314 385.284L334.142 369.776C325.359 354.938 306.663 355.225 298.21 370.326L289.654 385.619C281.139 400.864 262.196 400.983 253.537 385.835L244.816 370.565C236.157 355.44 217.276 355.512 208.72 370.709L200.37 385.523C191.773 400.792 172.789 400.792 164.191 385.523L155.943 370.877C147.346 355.632 128.404 355.608 119.786 370.829L111.497 385.475C102.859 400.72 83.8129 400.648 75.2773 385.307L67.2969 370.972C58.7818 355.68 39.8397 355.536 31.1602 370.685L22.3779 386.026C17.1537 395.168 8.1653 398.734 0 396.771V0.52616C8.16534 -1.43627 17.1332 2.13017 22.3779 11.2723L31.1602 26.6121C39.8397 41.7612 58.7819 41.6176 67.2969 26.325L75.2773 11.99C83.8335 -3.35046 102.859 -3.44656 111.497 11.8221L119.786 26.4685C128.404 41.6894 147.367 41.6655 155.943 26.4207L164.191 11.7742C172.789 -3.49436 191.773 -3.49447 200.37 11.7742L208.72 26.5887C217.276 41.7855 236.178 41.8572 244.816 26.7322L253.537 11.4637C262.196 -3.68541 281.119 -3.5663 289.654 11.6785L298.21 26.9715C306.663 42.0725 325.359 42.3592 334.142 27.5213L343.314 12.0135C352.097 -2.82441 370.793 -2.53691 379.246 12.5642L386.877 26.2058C395.454 41.5221 414.458 41.57 423.076 26.3015L431.488 11.4158C440.044 -3.73326 458.905 -3.82895 467.543 11.2723L476.325 26.5887C485.005 41.7376 503.948 41.594 512.463 26.3015L520.443 11.9656C529 -3.37461 548.025 -3.47001 556.663 11.7986L564.951 26.4451C573.569 41.6657 592.533 41.6418 601.109 26.3973L609.356 11.7508C617.954 -3.51796 636.938 -3.51796 645.535 11.7508L653.886 26.5642C662.442 41.7612 681.343 41.8329 689.981 26.7078L698.703 11.4392V11.4637C702.858 4.18828 709.398 0.430521 716 0.191199V0.52616C724.165 -1.43627 733.133 2.13017 738.378 11.2723L747.16 26.6121C755.84 41.7612 774.782 41.6176 783.297 26.325L791.277 11.99C799.833 -3.35046 818.859 -3.44656 827.497 11.8221L835.786 26.4685C844.404 41.6894 863.367 41.6655 871.943 26.4207L880.191 11.7742C888.789 -3.49436 907.773 -3.49447 916.37 11.7742L924.72 26.5887C933.276 41.7855 952.178 41.8572 960.816 26.7322L969.537 11.4637C978.196 -3.68541 997.119 -3.5663 1005.65 11.6785L1014.21 26.9715C1022.66 42.0725 1041.36 42.3592 1050.14 27.5213L1059.31 12.0135C1068.1 -2.82441 1086.79 -2.53691 1095.25 12.5642L1102.88 26.2058C1111.45 41.5221 1130.46 41.57 1139.08 26.3015L1147.49 11.4158C1156.04 -3.73326 1174.9 -3.82895 1183.54 11.2723L1192.33 26.5887C1201 41.7376 1219.95 41.594 1228.46 26.3015L1236.44 11.9656C1245 -3.37461 1264.02 -3.47001 1272.66 11.7986L1280.95 26.4451C1289.57 41.6657 1308.53 41.6418 1317.11 26.3973L1325.36 11.7508C1333.95 -3.51796 1352.94 -3.51796 1361.54 11.7508L1369.89 26.5642C1378.44 41.7612 1397.34 41.8329 1405.98 26.7078L1414.7 11.4392V11.4637C1418.86 4.18828 1425.4 0.430521 1432 0.191199V0.52616C1440.17 -1.43627 1449.13 2.13017 1454.38 11.2723L1463.16 26.6121C1471.84 41.7612 1490.78 41.6176 1499.3 26.325L1507.28 11.99C1515.83 -3.35046 1534.86 -3.44656 1543.5 11.8221L1551.79 26.4685C1560.4 41.6894 1579.37 41.6655 1587.94 26.4207L1596.19 11.7742C1604.79 -3.49436 1623.77 -3.49447 1632.37 11.7742L1640.72 26.5887C1649.28 41.7855 1668.18 41.8572 1676.82 26.7322L1685.54 11.4637C1694.2 -3.68541 1713.12 -3.5663 1721.65 11.6785L1730.21 26.9715C1738.66 42.0725 1757.36 42.3592 1766.14 27.5213L1775.31 12.0135C1784.1 -2.82441 1802.79 -2.53691 1811.25 12.5642L1818.88 26.2058C1827.45 41.5221 1846.46 41.57 1855.08 26.3015L1863.49 11.4158Z" fill="#D3D800"/>
</svg>
