<svg width="1086" height="1086" viewBox="0 0 1086 1086" fill="none" xmlns="http://www.w3.org/2000/svg">
<path d="M599.71 -0.000197858L655.725 121.082L764.691 44.1605L780.567 176.555L907.956 137.119L882.134 267.924L1015.5 269.765L950.51 386.223L1076.77 429.162L978.964 519.878L1085.78 599.736L964.744 655.747L1041.65 764.691L909.239 780.558L948.707 907.949L817.851 882.137L816.024 1015.51L699.567 950.496L656.618 1076.79L565.939 978.975L486.074 1085.78L430.053 964.754L321.087 1041.68L305.217 909.224L177.823 948.717L203.651 817.856L70.2862 816.014L135.274 699.556L9.01716 656.617L106.814 565.958L-0.000784957 486.1L121.034 430.088L44.1332 321.088L176.545 305.221L137.078 177.831L267.933 203.643L269.754 70.3254L386.217 135.283L429.161 9.04435L519.839 106.86L599.71 -0.000197858Z" fill="#D3D800"/>
</svg>
