<svg width="74" height="74" viewBox="0 0 74 74" fill="none" xmlns="http://www.w3.org/2000/svg">
<circle cx="37" cy="37" r="37" transform="rotate(-180 37 37)" fill="#D3D800"/>
<path fill-rule="evenodd" clip-rule="evenodd" d="M44 49.5937C42 50.7483 39.5 49.3045 39.5 46.9951L39.5 40.4687L15 40.4687C13.8954 40.4687 13 39.5733 13 38.4687L13 35.4687C13.0003 34.3644 13.8956 33.4687 15 33.4687L39.5 33.4687L39.5 27.9433C39.5 25.6339 42 24.1901 44 25.3447L60.5 34.8711C62.5 36.0258 62.5 38.9126 60.5 40.0673L44 49.5937Z" fill="black"/>
<rect width="74" height="74" rx="37" fill="#D3D800"/>
<path d="M14 37H57M40.0263 55L57 37L40.0263 19" stroke="black" stroke-width="5"/>
</svg>
